<svg xmlns="http://www.w3.org/2000/svg" xmlns:xlink="http://www.w3.org/1999/xlink" width="500" zoomAndPan="magnify" viewBox="0 0 375 374.999991" height="500" preserveAspectRatio="xMidYMid meet" version="1.0"><path fill="#caddff" d="M 356.5625 141.605469 C 340.613281 60.476562 260.089844 11.445312 192.503906 5.191406 C 136.511719 0.0078125 68.644531 14.140625 37.277344 66.144531 C 18.0625 98.007812 41.769531 112.035156 28.472656 182.550781 C 16.96875 243.589844 -4.007812 265.578125 8.757812 296.6875 C 19.195312 322.121094 42.945312 333.265625 58.535156 340.953125 C 119.992188 371.257812 233.175781 368.851562 300.386719 313.570312 C 316.117188 300.632812 374.605469 233.375 356.5625 141.605469 " fill-opacity="1" fill-rule="nonzero"/><path fill="#ffffff" d="M 144.472656 82.273438 C 153.644531 66.40625 173.921875 60.988281 189.765625 70.171875 C 205.609375 79.355469 211.023438 99.664062 201.851562 115.53125 C 192.679688 131.398438 172.402344 136.816406 156.558594 127.632812 C 140.714844 118.449219 135.300781 98.140625 144.472656 82.273438 Z M 122.609375 80.628906 C 121.578125 83.480469 120.789062 86.378906 120.261719 89.300781 L 106.558594 92.382812 L 106.542969 105.277344 L 120.261719 108.394531 C 120.792969 111.339844 121.5625 114.242188 122.574219 117.0625 L 112.226562 126.605469 L 118.652344 137.78125 L 132.066406 133.617188 C 133.980469 135.886719 136.101562 138.007812 138.417969 139.964844 L 134.222656 153.410156 L 145.367188 159.871094 L 154.917969 149.527344 C 157.765625 150.5625 160.660156 151.351562 163.578125 151.878906 L 166.652344 165.605469 L 179.53125 165.617188 L 182.640625 151.878906 C 185.582031 151.351562 188.480469 150.578125 191.296875 149.566406 L 200.828125 159.929688 L 211.988281 153.492188 L 207.824219 140.054688 C 210.089844 138.144531 212.210938 136.015625 214.167969 133.699219 L 227.589844 137.902344 L 234.039062 126.738281 L 223.71875 117.175781 C 224.746094 114.320312 225.535156 111.421875 226.0625 108.503906 L 239.769531 105.421875 L 239.785156 92.523438 L 226.0625 89.410156 C 225.535156 86.460938 224.761719 83.5625 223.753906 80.742188 L 234.101562 71.195312 L 227.671875 60.019531 L 214.253906 64.1875 C 212.347656 61.917969 210.222656 59.796875 207.90625 57.839844 L 212.105469 44.394531 L 200.957031 37.933594 L 191.410156 48.273438 C 188.558594 47.242188 185.664062 46.453125 182.75 45.925781 L 179.671875 32.199219 L 166.796875 32.183594 L 163.683594 45.925781 C 160.742188 46.453125 157.847656 47.226562 155.027344 48.238281 L 145.496094 37.875 L 134.339844 44.3125 L 138.5 57.746094 C 136.234375 59.660156 134.117188 61.789062 132.160156 64.105469 L 118.734375 59.90625 L 112.285156 71.066406 L 122.609375 80.628906 " fill-opacity="1" fill-rule="nonzero"/><path fill="#99b9ff" d="M 238.6875 345.472656 L 166.882812 345.472656 L 129.820312 280.507812 L 129.820312 337.25 C 129.820312 346.125 136.28125 353.222656 144.117188 353.222656 L 238.6875 353.222656 C 240.214844 353.222656 241.582031 352.15625 241.582031 350.625 L 241.582031 348.085938 C 241.582031 346.558594 240.214844 345.472656 238.6875 345.472656 " fill-opacity="1" fill-rule="nonzero"/><path fill="#ffffff" d="M 140.351562 300.917969 L 140.351562 333.09375 C 140.351562 339.617188 145.515625 344.828125 152.027344 344.828125 L 213.859375 344.828125 L 213.859375 300.917969 L 140.351562 300.917969 " fill-opacity="1" fill-rule="nonzero"/><path fill="#000000" d="M 140.996094 301.5625 L 140.996094 333.09375 C 140.996094 339.3125 145.839844 344.183594 152.027344 344.183594 L 213.210938 344.183594 L 213.210938 301.5625 Z M 214.5 345.472656 L 152.027344 345.472656 C 145.117188 345.472656 139.707031 340.035156 139.707031 333.09375 L 139.707031 300.273438 L 214.5 300.273438 L 214.5 345.472656 " fill-opacity="1" fill-rule="nonzero"/><path fill="#99b9ff" d="M 334.910156 303.886719 L 33.4375 304.546875 C 30.800781 304.546875 28.574219 302.582031 28.242188 299.957031 L 4.226562 112.011719 C 3.640625 107.4375 6.96875 103.117188 11.566406 103.117188 L 309.136719 103.390625 L 334.910156 303.886719 " fill-opacity="1" fill-rule="nonzero"/><path fill="#ffffff" d="M 341.085938 303.648438 L 45.636719 303.648438 C 43.003906 303.648438 40.777344 301.679688 40.441406 299.046875 L 16.578125 112.789062 C 15.917969 107.613281 19.917969 103.03125 25.097656 103.03125 L 316.738281 103.03125 C 319.371094 103.03125 321.59375 105.003906 321.933594 107.632812 L 346.28125 297.695312 C 346.6875 300.851562 344.246094 303.648438 341.085938 303.648438 " fill-opacity="1" fill-rule="nonzero"/><path fill="#000000" d="M 25.097656 103.675781 C 22.824219 103.675781 20.65625 104.660156 19.148438 106.375 C 17.628906 108.105469 16.925781 110.414062 17.21875 112.707031 L 41.082031 298.964844 C 41.375 301.265625 43.335938 303 45.636719 303 L 341.089844 303 C 342.402344 303 343.65625 302.433594 344.527344 301.441406 C 345.40625 300.441406 345.816406 299.105469 345.644531 297.78125 L 321.292969 107.714844 C 320.996094 105.414062 319.039062 103.675781 316.738281 103.675781 Z M 341.089844 304.292969 L 45.636719 304.292969 C 42.6875 304.292969 40.179688 302.074219 39.800781 299.128906 L 15.941406 112.871094 C 15.597656 110.210938 16.414062 107.53125 18.179688 105.523438 C 19.933594 103.527344 22.453125 102.386719 25.097656 102.386719 L 316.738281 102.386719 C 319.6875 102.386719 322.195312 104.605469 322.570312 107.550781 L 346.921875 297.613281 C 347.140625 299.308594 346.621094 301.015625 345.496094 302.292969 C 344.378906 303.566406 342.773438 304.292969 341.089844 304.292969 " fill-opacity="1" fill-rule="nonzero"/><path fill="#caddff" d="M 39.808594 85.210938 L 298.566406 85.210938 C 304.277344 85.210938 309.472656 89.863281 310.171875 95.605469 L 332 274.847656 C 332.707031 280.644531 328.625 285.347656 322.878906 285.347656 L 62.667969 285.347656 C 56.925781 285.347656 51.734375 280.644531 51.070312 274.847656 L 30.652344 95.605469 C 29.996094 89.863281 34.097656 85.210938 39.808594 85.210938 " fill-opacity="1" fill-rule="nonzero"/><path fill="#99b9ff" d="M 310.992188 101.949219 L 310.503906 95.507812 C 309.8125 89.820312 304.4375 85.292969 298.722656 85.292969 L 39.964844 85.292969 C 34.25 85.292969 30.09375 89.820312 30.742188 95.507812 L 31.347656 103.4375 L 310.992188 101.949219 " fill-opacity="1" fill-rule="nonzero"/><path fill="#caddff" d="M 47.027344 95.777344 C 47.242188 97.628906 45.914062 99.125 44.070312 99.125 C 42.226562 99.125 40.558594 97.628906 40.347656 95.777344 C 40.136719 93.929688 41.460938 92.433594 43.304688 92.433594 C 45.148438 92.433594 46.816406 93.929688 47.027344 95.777344 " fill-opacity="1" fill-rule="nonzero"/><path fill="#caddff" d="M 57.695312 95.554688 C 57.90625 97.402344 56.582031 98.902344 54.738281 98.902344 C 52.894531 98.902344 51.226562 97.402344 51.011719 95.554688 C 50.800781 93.703125 52.125 92.207031 53.96875 92.207031 C 55.816406 92.207031 57.484375 93.703125 57.695312 95.554688 " fill-opacity="1" fill-rule="nonzero"/><path fill="#caddff" d="M 69.328125 96 C 69.542969 97.847656 68.21875 99.347656 66.375 99.347656 C 64.527344 99.347656 62.859375 97.847656 62.648438 96 C 62.433594 94.152344 63.757812 92.65625 65.601562 92.65625 C 67.449219 92.65625 69.117188 94.152344 69.328125 96 " fill-opacity="1" fill-rule="nonzero"/><path fill="#ffffff" d="M 89.757812 202.347656 L 114.460938 202.347656 L 109.875 162.78125 L 108.953125 164.863281 Z M 130.21875 202.347656 L 141.957031 202.347656 L 143.441406 215.058594 L 131.699219 215.058594 L 134.15625 236.195312 L 118.386719 236.195312 L 115.9375 215.058594 L 75.136719 215.058594 L 73.574219 205.410156 L 106.878906 141.40625 L 123.128906 141.40625 L 130.21875 202.347656 " fill-opacity="1" fill-rule="nonzero"/><path fill="#ffffff" d="M 195.355469 178.519531 C 194.304688 169.632812 192.324219 163.117188 189.417969 158.980469 C 186.511719 154.839844 182.425781 152.773438 177.160156 152.773438 C 172.019531 152.773438 168.476562 154.734375 166.519531 158.652344 C 164.558594 162.574219 164.003906 168.695312 164.855469 177.023438 L 167.375 198.503906 C 168.417969 207.363281 170.425781 213.972656 173.398438 218.316406 C 176.378906 222.664062 180.503906 224.839844 185.78125 224.839844 C 190.84375 224.839844 194.34375 222.828125 196.292969 218.808594 C 198.238281 214.789062 198.773438 208.496094 197.890625 199.9375 Z M 213.203125 196.222656 C 214.824219 209.867188 213.503906 220.152344 209.242188 227.089844 C 204.980469 234.03125 197.65625 237.5 187.273438 237.5 C 177.0625 237.5 168.972656 234.117188 163.011719 227.351562 C 157.046875 220.589844 153.230469 210.582031 151.546875 197.332031 L 149.628906 180.925781 C 148.039062 167.3125 149.378906 157.105469 153.65625 150.304688 C 157.929688 143.507812 165.265625 140.109375 175.664062 140.109375 C 185.976562 140.109375 194.0625 143.417969 199.917969 150.046875 C 205.777344 156.671875 209.554688 166.597656 211.257812 179.820312 L 213.203125 196.222656 " fill-opacity="1" fill-rule="nonzero"/><path fill="#ffffff" d="M 240.710938 202.351562 L 265.414062 202.351562 L 260.65625 162.78125 L 259.742188 164.863281 Z M 281.171875 202.351562 L 292.90625 202.351562 L 294.445312 215.058594 L 282.703125 215.058594 L 285.253906 236.195312 L 269.480469 236.195312 L 266.941406 215.058594 L 226.144531 215.058594 L 224.539062 205.414062 L 257.574219 141.40625 L 273.824219 141.40625 L 281.171875 202.351562 " fill-opacity="1" fill-rule="nonzero"/><path fill="#5479f7" d="M 93.835938 198.179688 L 116.761719 198.179688 L 112.53125 161.667969 Z M 117.488281 199.46875 L 92.78125 199.46875 C 92.558594 199.46875 92.347656 199.355469 92.230469 199.160156 C 92.117188 198.96875 92.105469 198.730469 92.207031 198.53125 L 111.402344 161.042969 L 112.3125 158.996094 C 112.429688 158.726562 112.707031 158.574219 112.996094 158.617188 C 113.285156 158.660156 113.507812 158.894531 113.542969 159.183594 L 118.128906 198.75 C 118.148438 198.933594 118.089844 199.117188 117.96875 199.253906 C 117.847656 199.394531 117.671875 199.46875 117.488281 199.46875 Z M 121.984375 232.023438 L 136.457031 232.023438 L 134.082031 211.609375 C 134.0625 211.425781 134.117188 211.242188 134.242188 211.105469 C 134.363281 210.96875 134.539062 210.886719 134.722656 210.886719 L 145.738281 210.886719 L 144.40625 199.46875 L 133.242188 199.46875 C 132.917969 199.46875 132.640625 199.226562 132.601562 198.898438 L 125.578125 138.527344 L 110.296875 138.527344 L 77.269531 201.996094 L 78.710938 210.886719 L 118.960938 210.886719 C 119.289062 210.886719 119.5625 211.132812 119.601562 211.460938 Z M 137.183594 233.316406 L 121.410156 233.316406 C 121.082031 233.316406 120.808594 233.070312 120.769531 232.746094 L 118.386719 212.179688 L 78.160156 212.179688 C 77.84375 212.179688 77.574219 211.949219 77.523438 211.636719 L 75.964844 201.988281 C 75.941406 201.851562 75.964844 201.710938 76.027344 201.585938 L 109.332031 137.585938 C 109.445312 137.371094 109.664062 137.238281 109.90625 137.238281 L 126.152344 137.238281 C 126.480469 137.238281 126.753906 137.480469 126.792969 137.808594 L 133.816406 198.179688 L 144.980469 198.179688 C 145.308594 198.179688 145.582031 198.425781 145.621094 198.75 L 147.105469 211.460938 C 147.125 211.640625 147.066406 211.824219 146.945312 211.964844 C 146.824219 212.101562 146.648438 212.179688 146.464844 212.179688 L 135.449219 212.179688 L 137.824219 232.59375 C 137.84375 232.78125 137.789062 232.960938 137.664062 233.097656 C 137.542969 233.238281 137.367188 233.316406 137.183594 233.316406 " fill-opacity="1" fill-rule="nonzero"/><path fill="#5479f7" d="M 180.183594 149.894531 C 175.265625 149.894531 171.972656 151.699219 170.117188 155.417969 C 168.226562 159.210938 167.6875 165.273438 168.519531 173.433594 L 171.042969 194.90625 C 172.066406 203.621094 174.054688 210.191406 176.957031 214.429688 C 179.832031 218.628906 183.707031 220.667969 188.804688 220.667969 C 193.640625 220.667969 196.890625 218.816406 198.738281 215 C 200.621094 211.109375 201.136719 204.878906 200.273438 196.480469 L 197.738281 175.070312 C 196.707031 166.332031 194.746094 159.855469 191.914062 155.828125 C 189.109375 151.835938 185.269531 149.894531 180.183594 149.894531 Z M 188.804688 221.960938 C 183.328125 221.960938 178.984375 219.671875 175.894531 215.160156 C 172.871094 210.746094 170.808594 203.984375 169.761719 195.058594 L 167.238281 173.574219 C 166.378906 165.15625 166.960938 158.855469 168.964844 154.839844 C 171.03125 150.699219 174.804688 148.601562 180.183594 148.601562 C 185.644531 148.601562 189.949219 150.78125 192.96875 155.082031 C 195.925781 159.289062 197.960938 165.964844 199.019531 174.921875 L 201.554688 196.339844 C 202.445312 204.988281 201.890625 211.453125 199.898438 215.566406 C 197.84375 219.808594 194.109375 221.960938 188.804688 221.960938 Z M 178.691406 137.230469 C 168.574219 137.230469 161.351562 140.558594 157.226562 147.125 C 153.046875 153.765625 151.726562 163.925781 153.296875 177.328125 L 155.214844 193.734375 C 156.867188 206.789062 160.671875 216.773438 166.519531 223.398438 C 172.324219 229.988281 180.324219 233.328125 190.296875 233.328125 C 200.394531 233.328125 207.601562 229.929688 211.71875 223.226562 C 215.878906 216.453125 217.183594 206.207031 215.585938 192.777344 L 213.640625 176.375 C 211.964844 163.347656 208.207031 153.445312 202.460938 146.949219 C 196.761719 140.5 188.761719 137.230469 178.691406 137.230469 Z M 190.296875 234.621094 C 179.9375 234.621094 171.613281 231.132812 165.550781 224.253906 C 159.53125 217.429688 155.625 207.210938 153.933594 193.890625 L 152.011719 177.480469 C 150.410156 163.777344 151.796875 153.332031 156.132812 146.433594 C 160.515625 139.472656 168.105469 135.9375 178.691406 135.9375 C 189.148438 135.9375 197.46875 139.355469 203.425781 146.09375 C 209.34375 152.789062 213.210938 162.921875 214.917969 176.214844 L 216.867188 192.625 C 218.496094 206.351562 217.132812 216.875 212.816406 223.90625 C 208.449219 231.015625 200.875 234.621094 190.296875 234.621094 " fill-opacity="1" fill-rule="nonzero"/><path fill="#5479f7" d="M 268.441406 199.46875 L 243.734375 199.46875 C 243.511719 199.46875 243.300781 199.355469 243.183594 199.164062 C 243.066406 198.96875 243.058594 198.734375 243.160156 198.535156 L 262.195312 161.046875 L 263.09375 158.996094 C 263.210938 158.730469 263.492188 158.574219 263.78125 158.617188 C 264.066406 158.660156 264.289062 158.890625 264.324219 159.179688 L 267.28125 183.757812 C 267.320312 184.113281 267.070312 184.433594 266.714844 184.476562 C 266.359375 184.523438 266.039062 184.269531 266 183.914062 L 263.324219 161.667969 L 244.785156 198.179688 L 267.714844 198.179688 L 267.1875 193.828125 C 267.148438 193.472656 267.398438 193.152344 267.75 193.109375 C 268.113281 193.0625 268.425781 193.320312 268.46875 193.671875 L 269.078125 198.75 C 269.101562 198.929688 269.042969 199.113281 268.921875 199.253906 C 268.796875 199.390625 268.625 199.46875 268.441406 199.46875 Z M 288.277344 233.316406 L 272.507812 233.316406 C 272.179688 233.316406 271.90625 233.070312 271.867188 232.75 L 269.390625 212.179688 L 229.167969 212.179688 C 228.851562 212.179688 228.582031 211.953125 228.53125 211.640625 L 226.929688 201.992188 C 226.90625 201.855469 226.925781 201.714844 226.992188 201.59375 L 260.027344 137.585938 C 260.136719 137.371094 260.359375 137.238281 260.597656 137.238281 L 276.84375 137.238281 C 277.171875 137.238281 277.449219 137.480469 277.488281 137.804688 L 279.480469 154.332031 C 279.523438 154.6875 279.269531 155.007812 278.917969 155.050781 C 278.5625 155.09375 278.242188 154.84375 278.199219 154.488281 L 276.273438 138.53125 L 260.992188 138.53125 L 228.234375 201.992188 L 229.714844 210.886719 L 269.96875 210.886719 C 270.292969 210.886719 270.566406 211.132812 270.605469 211.457031 L 273.078125 232.023438 L 287.550781 232.023438 L 285.515625 215.136719 C 285.472656 214.78125 285.722656 214.457031 286.074219 214.417969 C 286.425781 214.375 286.75 214.625 286.792969 214.980469 L 288.917969 232.59375 C 288.9375 232.777344 288.882812 232.960938 288.761719 233.097656 C 288.640625 233.238281 288.460938 233.316406 288.277344 233.316406 " fill-opacity="1" fill-rule="nonzero"/><path fill="#5479f7" d="M 277.488281 285.996094 L 62.761719 285.996094 C 56.710938 285.996094 51.222656 281.027344 50.527344 274.917969 L 30.105469 95.675781 C 29.765625 92.695312 30.613281 89.894531 32.488281 87.789062 C 34.339844 85.710938 36.972656 84.566406 39.902344 84.566406 L 298.664062 84.566406 C 304.679688 84.566406 310.171875 89.484375 310.90625 95.527344 L 318.007812 153.8125 C 318.050781 154.167969 317.796875 154.488281 317.445312 154.53125 C 317.09375 154.570312 316.769531 154.324219 316.726562 153.96875 L 309.628906 95.679688 C 308.96875 90.265625 304.050781 85.859375 298.664062 85.859375 L 39.902344 85.859375 C 37.347656 85.859375 35.054688 86.847656 33.453125 88.648438 C 31.824219 90.476562 31.089844 92.917969 31.386719 95.53125 L 51.808594 274.769531 C 52.429688 280.246094 57.347656 284.703125 62.761719 284.703125 L 277.488281 284.703125 C 277.84375 284.703125 278.132812 284.992188 278.132812 285.347656 C 278.132812 285.707031 277.84375 285.996094 277.488281 285.996094 " fill-opacity="1" fill-rule="nonzero"/><path fill="#000000" d="M 238.238281 353.652344 L 147.445312 353.652344 C 147.089844 353.652344 146.800781 353.363281 146.800781 353.007812 C 146.800781 352.652344 147.089844 352.359375 147.445312 352.359375 L 238.238281 352.359375 C 239.390625 352.359375 240.292969 351.417969 240.292969 350.214844 L 240.292969 347.671875 C 240.292969 346.460938 239.375 345.472656 238.238281 345.472656 L 211.921875 345.472656 C 211.566406 345.472656 211.277344 345.183594 211.277344 344.828125 C 211.277344 344.472656 211.566406 344.183594 211.921875 344.183594 L 238.238281 344.183594 C 240.085938 344.183594 241.582031 345.746094 241.582031 347.671875 L 241.582031 350.214844 C 241.582031 352.109375 240.085938 353.652344 238.238281 353.652344 " fill-opacity="1" fill-rule="nonzero"/><path fill="#99b9ff" d="M 117.996094 346.765625 L 39.753906 346.765625 L 47.15625 332.167969 L 53.609375 319.457031 L 60.824219 305.253906 L 67.273438 292.550781 L 75.664062 276.035156 C 76.277344 274.824219 77.519531 274.066406 78.875 274.066406 C 80.230469 274.066406 81.472656 274.820312 82.085938 276.035156 L 90.476562 292.546875 L 96.925781 305.25 L 104.136719 319.449219 L 110.59375 332.167969 L 117.996094 346.765625 " fill-opacity="1" fill-rule="nonzero"/><path fill="#5479f7" d="M 96.925781 305.4375 L 60.824219 305.4375 L 67.273438 292.523438 L 90.476562 292.523438 L 96.925781 305.4375 " fill-opacity="1" fill-rule="nonzero"/><path fill="#5479f7" d="M 110.59375 332.128906 L 47.15625 332.128906 L 53.609375 319.644531 L 104.136719 319.644531 L 110.59375 332.128906 " fill-opacity="1" fill-rule="nonzero"/><path fill="#000000" d="M 40.414062 346.332031 L 116.5625 346.332031 L 103.175781 319.742188 L 81.125 276.328125 C 80.621094 275.332031 79.609375 274.710938 78.488281 274.710938 C 77.367188 274.710938 76.359375 275.332031 75.851562 276.335938 L 61.011719 305.574219 L 53.800781 319.804688 L 47.347656 332.570312 Z M 117.609375 347.625 L 39.367188 347.625 C 39.140625 347.625 38.933594 347.507812 38.816406 347.316406 C 38.699219 347.128906 38.6875 346.890625 38.789062 346.691406 L 46.195312 331.984375 L 52.648438 319.21875 L 66.3125 292.269531 L 74.703125 275.75 C 75.429688 274.3125 76.882812 273.421875 78.488281 273.421875 C 80.097656 273.421875 81.546875 274.3125 82.273438 275.742188 L 104.328125 319.160156 L 118.1875 346.691406 C 118.289062 346.890625 118.277344 347.128906 118.160156 347.316406 C 118.042969 347.507812 117.835938 347.625 117.609375 347.625 " fill-opacity="1" fill-rule="nonzero"/><path fill="#5479f7" d="M 125.25 347.035156 C 125.25 345.585938 124.078125 344.410156 122.628906 344.410156 L 34.730469 344.410156 C 33.285156 344.410156 32.113281 345.585938 32.113281 347.035156 L 32.113281 355.332031 C 32.113281 356.78125 33.285156 357.957031 34.730469 357.957031 L 122.628906 357.957031 C 124.078125 357.957031 125.25 356.78125 125.25 355.332031 L 125.25 347.035156 " fill-opacity="1" fill-rule="nonzero"/><path fill="#000000" d="M 34.730469 345.058594 C 33.644531 345.058594 32.757812 345.945312 32.757812 347.035156 L 32.757812 355.332031 C 32.757812 356.425781 33.644531 357.3125 34.730469 357.3125 L 122.628906 357.3125 C 123.71875 357.3125 124.605469 356.425781 124.605469 355.332031 L 124.605469 347.035156 C 124.605469 345.945312 123.71875 345.058594 122.628906 345.058594 Z M 122.628906 358.601562 L 34.730469 358.601562 C 32.933594 358.601562 31.46875 357.136719 31.46875 355.332031 L 31.46875 347.035156 C 31.46875 345.234375 32.933594 343.765625 34.730469 343.765625 L 122.628906 343.765625 C 124.429688 343.765625 125.894531 345.234375 125.894531 347.035156 L 125.894531 355.332031 C 125.894531 357.136719 124.429688 358.601562 122.628906 358.601562 " fill-opacity="1" fill-rule="nonzero"/><path fill="#5479f7" d="M 335.894531 188.738281 C 346.066406 191.601562 359.160156 202.628906 359.160156 222.636719 C 359.160156 237.050781 337.957031 249.261719 337.957031 249.261719 L 334.464844 240.667969 C 334.464844 240.667969 346.148438 232 345.585938 221.882812 C 345.140625 213.769531 332.078125 211.25 332.078125 211.25 L 335.894531 188.738281 " fill-opacity="1" fill-rule="nonzero"/><path fill="#5479f7" d="M 331.601562 353.164062 L 324.292969 353.164062 L 324.292969 344.566406 L 331.601562 344.566406 L 331.601562 353.164062 " fill-opacity="1" fill-rule="nonzero"/><path fill="#5479f7" d="M 312.144531 351.570312 L 305.03125 353.25 L 303.058594 344.886719 L 310.175781 343.203125 L 312.144531 351.570312 " fill-opacity="1" fill-rule="nonzero"/><path fill="#000000" d="M 337.640625 237.921875 C 337.640625 237.921875 339.824219 255.207031 338.148438 261.921875 C 336.476562 268.632812 332.554688 330.652344 332.554688 347.433594 L 322.703125 347.433594 L 318.25 268.164062 L 304.5 296.925781 C 303.5 299.257812 303.246094 301.84375 303.773438 304.328125 L 311.894531 347.433594 L 302.675781 348.070312 L 287.261719 300.738281 C 286.574219 298.394531 286.523438 295.902344 287.113281 293.53125 L 299.613281 243.464844 L 337.640625 237.921875 " fill-opacity="1" fill-rule="nonzero"/><path fill="#ffffff" d="M 318.726562 267.058594 C 318.585938 267.058594 318.445312 267.015625 318.324219 266.917969 C 318.046875 266.695312 318 266.289062 318.226562 266.011719 L 323.308594 259.644531 C 323.53125 259.367188 323.9375 259.320312 324.214844 259.542969 C 324.496094 259.765625 324.539062 260.171875 324.3125 260.449219 L 319.230469 266.816406 C 319.101562 266.976562 318.914062 267.058594 318.726562 267.058594 " fill-opacity="1" fill-rule="nonzero"/><path fill="#ffffff" d="M 332.082031 351.253906 L 323.496094 351.253906 L 322.226562 357.742188 C 321.980469 358.992188 322.878906 360.167969 324.089844 360.167969 L 331.488281 360.167969 C 332.691406 360.167969 333.597656 358.992188 333.351562 357.742188 L 332.082031 351.253906 " fill-opacity="1" fill-rule="nonzero"/><path fill="#000000" d="M 324.023438 351.898438 L 322.855469 357.867188 C 322.769531 358.296875 322.878906 358.734375 323.148438 359.0625 C 323.390625 359.359375 323.726562 359.523438 324.089844 359.523438 L 331.484375 359.523438 C 331.847656 359.523438 332.183594 359.359375 332.425781 359.0625 C 332.695312 358.734375 332.800781 358.296875 332.71875 357.867188 L 331.546875 351.898438 Z M 331.484375 360.8125 L 324.089844 360.8125 C 323.34375 360.8125 322.636719 360.476562 322.152344 359.882812 C 321.636719 359.253906 321.433594 358.429688 321.589844 357.617188 L 322.863281 351.128906 C 322.921875 350.828125 323.1875 350.609375 323.496094 350.609375 L 332.078125 350.609375 C 332.386719 350.609375 332.652344 350.828125 332.710938 351.128906 L 333.980469 357.617188 C 334.140625 358.429688 333.9375 359.253906 333.421875 359.882812 C 332.9375 360.476562 332.230469 360.8125 331.484375 360.8125 " fill-opacity="1" fill-rule="nonzero"/><path fill="#000000" d="M 332.078125 358.742188 L 323.175781 358.742188 C 322.820312 358.742188 322.53125 358.457031 322.53125 358.097656 C 322.53125 357.742188 322.820312 357.449219 323.175781 357.449219 L 332.078125 357.449219 C 332.433594 357.449219 332.722656 357.742188 332.722656 358.097656 C 332.722656 358.457031 332.433594 358.742188 332.078125 358.742188 " fill-opacity="1" fill-rule="nonzero"/><path fill="#ffffff" d="M 312.371094 349.34375 L 314.722656 357.15625 C 315.128906 358.511719 314.300781 359.953125 313.085938 359.992188 L 296.941406 360.539062 C 295.941406 360.574219 295.542969 359.023438 296.386719 358.390625 C 299.011719 356.410156 302.511719 353.664062 303.46875 352.363281 C 305.695312 349.34375 307.921875 351.984375 307.921875 351.984375 C 307.921875 351.984375 309.507812 349.34375 312.371094 349.34375 " fill-opacity="1" fill-rule="nonzero"/><path fill="#000000" d="M 305.789062 351.5625 C 305.769531 351.5625 305.753906 351.5625 305.738281 351.5625 C 305.136719 351.585938 304.550781 351.984375 303.988281 352.746094 C 303.1875 353.832031 300.757812 355.902344 296.777344 358.90625 C 296.550781 359.074219 296.535156 359.390625 296.617188 359.613281 C 296.644531 359.699219 296.734375 359.894531 296.910156 359.894531 C 296.914062 359.894531 296.914062 359.894531 296.917969 359.894531 L 313.066406 359.347656 C 313.484375 359.332031 313.75 359.042969 313.875 358.871094 C 314.171875 358.453125 314.261719 357.867188 314.105469 357.34375 L 311.898438 350.015625 C 309.738281 350.28125 308.484375 352.296875 308.472656 352.320312 C 308.363281 352.496094 308.179688 352.609375 307.96875 352.628906 C 307.761719 352.640625 307.5625 352.558594 307.429688 352.402344 C 307.421875 352.394531 306.695312 351.5625 305.789062 351.5625 Z M 296.910156 361.183594 C 296.234375 361.183594 295.648438 360.742188 295.398438 360.046875 C 295.113281 359.230469 295.355469 358.359375 296 357.871094 C 299.777344 355.03125 302.246094 352.9375 302.949219 351.980469 C 303.761719 350.878906 304.6875 350.304688 305.703125 350.269531 C 306.601562 350.226562 307.34375 350.65625 307.824219 351.023438 C 308.542969 350.15625 310.082031 348.695312 312.371094 348.695312 C 312.652344 348.695312 312.90625 348.882812 312.988281 349.15625 L 315.335938 356.96875 C 315.613281 357.882812 315.457031 358.875 314.921875 359.625 C 314.476562 360.242188 313.816406 360.613281 313.109375 360.636719 L 296.964844 361.183594 C 296.945312 361.183594 296.929688 361.183594 296.910156 361.183594 " fill-opacity="1" fill-rule="nonzero"/><path fill="#ffffff" d="M 298.703125 358.097656 L 313.324219 357.460938 L 298.703125 358.097656 " fill-opacity="1" fill-rule="nonzero"/><path fill="#000000" d="M 298.699219 358.742188 C 298.359375 358.742188 298.070312 358.472656 298.058594 358.125 C 298.042969 357.769531 298.316406 357.46875 298.671875 357.453125 L 313.296875 356.816406 C 313.660156 356.792969 313.953125 357.074219 313.964844 357.433594 C 313.984375 357.789062 313.707031 358.089844 313.351562 358.105469 L 298.726562 358.742188 C 298.71875 358.742188 298.710938 358.742188 298.699219 358.742188 " fill-opacity="1" fill-rule="nonzero"/><path fill="#ffffff" d="M 320.953125 184.28125 L 328.902344 189.695312 L 307.015625 188.644531 L 313.324219 184.601562 L 314.175781 180.683594 C 313.054688 180.515625 311.515625 180.40625 311.023438 179.792969 C 310.160156 178.714844 310.546875 174.976562 310.546875 174.976562 L 309.601562 174.234375 C 309.5 174.179688 309.425781 174.089844 309.394531 173.984375 C 309.367188 173.871094 309.386719 173.753906 309.441406 173.660156 C 310.246094 172.375 311.007812 171.960938 311.363281 170.652344 C 311.714844 169.359375 311.558594 169.554688 312.949219 166.769531 L 321.273438 166.757812 L 321.316406 173.007812 C 321.316406 173.007812 322.597656 172.183594 323.402344 173.296875 C 323.992188 174.109375 322.6875 176.824219 321.632812 176.824219 L 320.953125 184.28125 " fill-opacity="1" fill-rule="nonzero"/><path fill="#000000" d="M 309.066406 188.097656 L 326.648438 188.9375 L 320.589844 184.8125 C 320.398438 184.683594 320.289062 184.457031 320.3125 184.222656 L 320.992188 176.765625 C 321.023438 176.433594 321.300781 176.179688 321.632812 176.179688 C 321.722656 176.171875 322.085938 175.941406 322.464844 175.253906 C 322.886719 174.488281 322.957031 173.820312 322.878906 173.671875 C 322.441406 173.074219 321.746094 173.5 321.667969 173.550781 C 321.46875 173.679688 321.21875 173.6875 321.011719 173.574219 C 320.800781 173.464844 320.675781 173.246094 320.671875 173.011719 L 320.628906 167.410156 L 313.347656 167.417969 C 312.351562 169.421875 312.304688 169.609375 312.105469 170.359375 C 312.074219 170.492188 312.03125 170.640625 311.984375 170.820312 C 311.722656 171.777344 311.273438 172.328125 310.796875 172.910156 C 310.574219 173.183594 310.34375 173.464844 310.113281 173.8125 L 310.949219 174.472656 C 311.125 174.609375 311.214844 174.824219 311.191406 175.046875 C 311.042969 176.488281 311.042969 178.789062 311.527344 179.390625 C 311.785156 179.710938 313.007812 179.875 313.742188 179.972656 C 313.921875 179.996094 314.097656 180.019531 314.269531 180.046875 C 314.441406 180.070312 314.601562 180.167969 314.703125 180.316406 C 314.804688 180.464844 314.839844 180.644531 314.804688 180.820312 L 313.953125 184.738281 C 313.917969 184.90625 313.816406 185.050781 313.671875 185.144531 Z M 328.898438 190.339844 C 328.890625 190.339844 328.878906 190.339844 328.867188 190.339844 L 306.984375 189.289062 C 306.707031 189.273438 306.464844 189.082031 306.390625 188.808594 C 306.320312 188.539062 306.433594 188.25 306.671875 188.101562 L 312.75 184.199219 L 313.394531 181.230469 C 312.234375 181.070312 311.074219 180.886719 310.519531 180.199219 C 309.660156 179.121094 309.785156 176.375 309.875 175.269531 L 309.242188 174.769531 C 309.015625 174.632812 308.847656 174.414062 308.773438 174.152344 C 308.695312 173.875 308.742188 173.566406 308.898438 173.316406 C 309.21875 172.808594 309.527344 172.425781 309.800781 172.09375 C 310.238281 171.558594 310.554688 171.171875 310.742188 170.480469 C 310.789062 170.308594 310.824219 170.164062 310.859375 170.03125 C 311.097656 169.121094 311.179688 168.875 312.371094 166.484375 C 312.480469 166.265625 312.703125 166.128906 312.945312 166.125 L 321.269531 166.117188 C 321.269531 166.117188 321.269531 166.117188 321.273438 166.117188 C 321.625 166.117188 321.914062 166.402344 321.914062 166.757812 L 321.957031 172.097656 C 322.621094 172 323.378906 172.167969 323.925781 172.917969 C 324.566406 173.804688 323.902344 175.285156 323.679688 175.714844 C 323.46875 176.136719 322.957031 176.996094 322.234375 177.332031 L 321.628906 183.960938 L 329.261719 189.160156 C 329.5 189.320312 329.601562 189.625 329.511719 189.898438 C 329.425781 190.164062 329.175781 190.339844 328.898438 190.339844 " fill-opacity="1" fill-rule="nonzero"/><path fill="#000000" d="M 322.039062 179.617188 C 320.363281 180.175781 318.707031 178.863281 318.414062 178.628906 C 317.246094 177.703125 316.292969 176.050781 316.761719 175.324219 C 317.019531 174.925781 317.476562 175.144531 318.082031 174.664062 C 318.96875 173.957031 319.21875 172.429688 318.738281 172.023438 C 318.347656 171.683594 317.734375 172.328125 317.09375 172.023438 C 316.308594 171.644531 316.710938 170.4375 316.101562 169.378906 C 315.109375 167.644531 312.800781 168.691406 311.023438 166.84375 C 309.863281 165.636719 309.359375 163.632812 310.023438 162.496094 C 310.21875 162.167969 310.511719 161.871094 310.933594 161.636719 C 313.726562 160.097656 314.148438 162.207031 316.871094 162.230469 C 322.464844 162.277344 325.210938 163.398438 326.226562 165.722656 C 326.914062 167.300781 326.074219 169.8125 325.667969 171.027344 C 325.53125 171.4375 325.246094 172.203125 325.003906 173.34375 C 324.746094 174.589844 324.824219 174.910156 324.675781 175.65625 C 324.574219 176.175781 324.015625 178.957031 322.039062 179.617188 " fill-opacity="1" fill-rule="nonzero"/><path fill="#ffffff" d="M 309.5 169.835938 C 309.5 169.835938 311.96875 170.75 312.507812 169.511719 C 313.046875 168.277344 312.1875 167.253906 313.527344 166.285156 C 314.875 165.316406 318.097656 164.292969 316.917969 162.839844 C 315.730469 161.386719 312.132812 160.796875 311.113281 162.515625 C 310.09375 164.238281 309.335938 167.199219 308.640625 167.253906 C 307.941406 167.304688 308.199219 169.53125 309.5 169.835938 " fill-opacity="1" fill-rule="nonzero"/><path fill="#000000" d="M 309.722656 169.230469 C 310.496094 169.515625 311.730469 169.6875 311.917969 169.253906 C 312.070312 168.898438 312.070312 168.558594 312.070312 168.164062 C 312.066406 167.441406 312.0625 166.546875 313.152344 165.761719 C 313.527344 165.488281 314.007812 165.230469 314.511719 164.957031 C 315.234375 164.570312 316.4375 163.921875 316.523438 163.496094 C 316.53125 163.433594 316.496094 163.351562 316.414062 163.246094 C 315.835938 162.539062 314.386719 162.03125 313.175781 162.121094 C 312.753906 162.152344 312 162.289062 311.664062 162.847656 C 311.277344 163.503906 310.90625 164.402344 310.585938 165.191406 C 309.972656 166.683594 309.582031 167.636719 308.914062 167.855469 C 308.890625 168.015625 308.914062 168.335938 309.078125 168.671875 C 309.15625 168.839844 309.34375 169.132812 309.644531 169.207031 C 309.671875 169.210938 309.695312 169.222656 309.722656 169.230469 Z M 311.199219 170.808594 C 310.367188 170.808594 309.542969 170.535156 309.3125 170.457031 C 308.046875 170.132812 307.554688 168.679688 307.625 167.789062 C 307.679688 167.042969 308.082031 166.707031 308.472656 166.625 C 308.703125 166.375 309.117188 165.375 309.390625 164.699219 C 309.730469 163.871094 310.117188 162.925781 310.554688 162.1875 C 311.023438 161.398438 311.921875 160.917969 313.082031 160.832031 C 314.730469 160.707031 316.558594 161.382812 317.414062 162.433594 C 317.835938 162.949219 317.851562 163.433594 317.785156 163.746094 C 317.582031 164.769531 316.332031 165.445312 315.125 166.09375 C 314.65625 166.347656 314.214844 166.585938 313.90625 166.808594 C 313.355469 167.207031 313.355469 167.527344 313.355469 168.160156 C 313.359375 168.605469 313.359375 169.164062 313.097656 169.769531 C 312.75 170.578125 311.96875 170.808594 311.199219 170.808594 " fill-opacity="1" fill-rule="nonzero"/><path fill="#5479f7" d="M 298.703125 187.46875 C 298.703125 187.46875 317.773438 182.054688 335.894531 188.738281 C 337.285156 196.785156 338.242188 203.730469 338.910156 209.230469 C 340.085938 218.917969 339.355469 215.824219 340.820312 229.964844 C 341.730469 238.753906 341.972656 239.558594 341.136719 241.105469 C 336.933594 248.914062 319.992188 248.488281 313.480469 246.835938 C 313.019531 246.71875 311.109375 246.214844 307.980469 245.425781 C 304.398438 244.519531 301.457031 243.804688 299.496094 243.335938 C 298.433594 242.851562 297 242 295.996094 240.46875 C 293.757812 237.042969 295.257812 232.609375 295.996094 229.648438 C 297.90625 222.039062 295.398438 221.875 295.996094 208 C 296.207031 203.148438 296.816406 196.097656 298.703125 187.46875 " fill-opacity="1" fill-rule="nonzero"/><path fill="#ffffff" d="M 333.589844 247.058594 C 333.273438 247.058594 333 246.828125 332.953125 246.507812 C 332.902344 246.15625 333.144531 245.828125 333.496094 245.773438 C 333.84375 245.722656 341.949219 244.433594 340.875 236.738281 C 340.828125 236.386719 341.070312 236.058594 341.425781 236.007812 C 341.773438 235.960938 342.105469 236.207031 342.152344 236.5625 C 343.402344 245.535156 333.78125 247.039062 333.679688 247.054688 C 333.652344 247.054688 333.621094 247.058594 333.589844 247.058594 " fill-opacity="1" fill-rule="nonzero"/><path fill="#ffffff" d="M 311.5 239.628906 C 311.335938 239.628906 311.171875 239.570312 311.046875 239.445312 C 303.445312 231.941406 301.875 220.582031 301.8125 220.105469 C 301.769531 219.75 302.015625 219.425781 302.367188 219.378906 C 302.722656 219.335938 303.046875 219.582031 303.089844 219.9375 C 303.105469 220.046875 304.671875 231.339844 311.953125 238.527344 C 312.207031 238.777344 312.207031 239.183594 311.960938 239.4375 C 311.832031 239.566406 311.667969 239.628906 311.5 239.628906 " fill-opacity="1" fill-rule="nonzero"/><path fill="#5479f7" d="M 291.933594 177.21875 C 291.945312 176.878906 292.1875 176.59375 292.519531 176.527344 L 311.363281 170.648438 L 309.730469 166.761719 C 309.730469 166.761719 284.214844 158.648438 272.246094 168.996094 C 260.273438 179.34375 284.339844 204.914062 297.921875 210.835938 L 310.359375 185.828125 L 292.472656 177.949219 C 292.140625 177.863281 291.921875 177.558594 291.933594 177.21875 " fill-opacity="1" fill-rule="nonzero"/><path fill="#ffffff" d="M 350.234375 113.644531 C 350.234375 127.996094 338.621094 139.628906 324.292969 139.628906 C 309.960938 139.628906 298.347656 127.996094 298.347656 113.644531 C 298.347656 99.296875 309.960938 87.664062 324.292969 87.664062 C 338.621094 87.664062 350.234375 99.296875 350.234375 113.644531 " fill-opacity="1" fill-rule="nonzero"/><path fill="#000000" d="M 324.289062 88.308594 C 310.339844 88.308594 298.992188 99.675781 298.992188 113.644531 C 298.992188 127.617188 310.339844 138.984375 324.289062 138.984375 C 338.238281 138.984375 349.589844 127.617188 349.589844 113.644531 C 349.589844 99.675781 338.238281 88.308594 324.289062 88.308594 Z M 324.289062 140.273438 C 309.628906 140.273438 297.699219 128.328125 297.699219 113.644531 C 297.699219 98.964844 309.628906 87.019531 324.289062 87.019531 C 338.953125 87.019531 350.878906 98.964844 350.878906 113.644531 C 350.878906 128.328125 338.953125 140.273438 324.289062 140.273438 " fill-opacity="1" fill-rule="nonzero"/><path fill="#99b9ff" d="M 340.636719 113.648438 C 340.636719 122.6875 333.320312 130.015625 324.289062 130.015625 C 315.261719 130.015625 307.945312 122.6875 307.945312 113.648438 C 307.945312 104.605469 315.261719 97.277344 324.289062 97.277344 C 333.320312 97.277344 340.636719 104.605469 340.636719 113.648438 " fill-opacity="1" fill-rule="nonzero"/><path fill="#ffffff" d="M 317.261719 121.054688 C 317.203125 121.054688 317.144531 121.050781 317.089844 121.035156 C 316.746094 120.941406 316.542969 120.585938 316.636719 120.238281 C 317.59375 116.738281 320.800781 114.292969 324.425781 114.292969 C 327.878906 114.292969 330.949219 116.488281 332.070312 119.753906 C 332.183594 120.09375 332.007812 120.460938 331.667969 120.574219 C 331.328125 120.6875 330.964844 120.511719 330.851562 120.175781 C 329.910156 117.429688 327.328125 115.585938 324.425781 115.585938 C 321.378906 115.585938 318.6875 117.636719 317.882812 120.582031 C 317.804688 120.867188 317.542969 121.054688 317.261719 121.054688 " fill-opacity="1" fill-rule="nonzero"/><path fill="#ffffff" d="M 318.9375 110.875 C 318.773438 110.875 318.605469 110.8125 318.480469 110.6875 L 314.808594 107.007812 C 314.558594 106.757812 314.558594 106.347656 314.808594 106.097656 C 315.0625 105.84375 315.46875 105.84375 315.722656 106.097656 L 319.394531 109.773438 C 319.644531 110.023438 319.644531 110.433594 319.394531 110.6875 C 319.269531 110.8125 319.105469 110.875 318.9375 110.875 " fill-opacity="1" fill-rule="nonzero"/><path fill="#ffffff" d="M 318.9375 110.875 C 318.773438 110.875 318.605469 110.8125 318.480469 110.6875 L 314.808594 107.007812 C 314.558594 106.757812 314.558594 106.347656 314.808594 106.097656 C 315.0625 105.84375 315.46875 105.84375 315.722656 106.097656 L 319.394531 109.773438 C 319.644531 110.023438 319.644531 110.433594 319.394531 110.6875 C 319.269531 110.8125 319.105469 110.875 318.9375 110.875 " fill-opacity="1" fill-rule="nonzero"/><path fill="#ffffff" d="M 315.265625 110.875 C 315.101562 110.875 314.933594 110.8125 314.808594 110.6875 C 314.558594 110.433594 314.558594 110.023438 314.808594 109.773438 L 318.480469 106.097656 C 318.734375 105.84375 319.140625 105.84375 319.394531 106.097656 C 319.644531 106.347656 319.644531 106.757812 319.394531 107.007812 L 315.722656 110.6875 C 315.59375 110.8125 315.433594 110.875 315.265625 110.875 " fill-opacity="1" fill-rule="nonzero"/><path fill="#ffffff" d="M 333.550781 110.878906 C 333.386719 110.878906 333.222656 110.816406 333.097656 110.6875 L 329.421875 107.011719 C 329.167969 106.757812 329.167969 106.351562 329.421875 106.097656 C 329.675781 105.847656 330.082031 105.847656 330.335938 106.097656 L 334.007812 109.773438 C 334.257812 110.027344 334.257812 110.4375 334.007812 110.6875 C 333.882812 110.816406 333.714844 110.878906 333.550781 110.878906 " fill-opacity="1" fill-rule="nonzero"/><path fill="#ffffff" d="M 329.878906 110.878906 C 329.714844 110.878906 329.550781 110.816406 329.421875 110.6875 C 329.167969 110.4375 329.167969 110.027344 329.421875 109.773438 L 333.097656 106.097656 C 333.347656 105.847656 333.753906 105.847656 334.007812 106.097656 C 334.257812 106.351562 334.257812 106.757812 334.007812 107.011719 L 330.335938 110.6875 C 330.207031 110.816406 330.042969 110.878906 329.878906 110.878906 " fill-opacity="1" fill-rule="nonzero"/><path fill="#000000" d="M 236.675781 32.492188 C 236.566406 32.492188 236.453125 32.46875 236.347656 32.421875 C 210.851562 21.78125 181.4375 18.53125 151.289062 23.027344 C 150.820312 23.09375 150.382812 22.773438 150.316406 22.304688 C 150.246094 21.832031 150.566406 21.394531 151.039062 21.324219 C 181.492188 16.78125 211.222656 20.070312 237.007812 30.832031 C 237.445312 31.015625 237.652344 31.519531 237.46875 31.960938 C 237.332031 32.289062 237.011719 32.488281 236.675781 32.492188 " fill-opacity="1" fill-rule="nonzero"/><path fill="#000000" d="M 248.953125 28.816406 C 248.824219 28.816406 248.6875 28.785156 248.5625 28.722656 C 246.371094 27.578125 244.101562 26.472656 241.808594 25.4375 C 209.734375 10.925781 170.921875 8.179688 132.523438 17.707031 C 132.058594 17.820312 131.597656 17.542969 131.480469 17.082031 C 131.367188 16.617188 131.648438 16.148438 132.109375 16.039062 C 170.882812 6.417969 210.09375 9.195312 242.515625 23.867188 C 244.835938 24.917969 247.136719 26.035156 249.355469 27.191406 C 249.773438 27.410156 249.9375 27.929688 249.71875 28.351562 C 249.5625 28.648438 249.265625 28.816406 248.953125 28.816406 " fill-opacity="1" fill-rule="nonzero"/><path fill="#000000" d="M 276.039062 59.257812 C 275.695312 59.257812 275.410156 58.988281 275.394531 58.644531 C 275.378906 58.285156 275.652344 57.984375 276.007812 57.964844 L 279.105469 57.816406 C 279.460938 57.800781 279.761719 58.074219 279.777344 58.429688 C 279.796875 58.789062 279.519531 59.089844 279.167969 59.109375 L 276.070312 59.257812 C 276.0625 59.257812 276.046875 59.257812 276.039062 59.257812 " fill-opacity="1" fill-rule="nonzero"/><path fill="#000000" d="M 286.878906 58.738281 C 286.53125 58.738281 286.25 58.46875 286.234375 58.121094 C 286.214844 57.765625 286.488281 57.460938 286.847656 57.445312 L 289.941406 57.296875 C 290.292969 57.28125 290.601562 57.554688 290.617188 57.910156 C 290.632812 58.265625 290.359375 58.570312 290.003906 58.585938 L 286.910156 58.738281 C 286.894531 58.738281 286.886719 58.738281 286.878906 58.738281 " fill-opacity="1" fill-rule="nonzero"/><path fill="#000000" d="M 283.382812 65.898438 C 283.039062 65.898438 282.757812 65.632812 282.738281 65.289062 L 282.570312 62.1875 C 282.554688 61.832031 282.824219 61.527344 283.179688 61.507812 C 283.542969 61.5 283.839844 61.761719 283.859375 62.117188 L 284.027344 65.21875 C 284.046875 65.578125 283.773438 65.878906 283.417969 65.898438 C 283.40625 65.898438 283.390625 65.898438 283.382812 65.898438 " fill-opacity="1" fill-rule="nonzero"/><path fill="#000000" d="M 282.796875 55.042969 C 282.457031 55.042969 282.175781 54.777344 282.152344 54.433594 L 281.984375 51.332031 C 281.96875 50.976562 282.242188 50.671875 282.597656 50.652344 C 282.949219 50.640625 283.253906 50.90625 283.273438 51.261719 L 283.441406 54.363281 C 283.460938 54.71875 283.191406 55.023438 282.832031 55.042969 C 282.824219 55.042969 282.808594 55.042969 282.796875 55.042969 " fill-opacity="1" fill-rule="nonzero"/><path fill="#000000" d="M 254.753906 320.367188 C 254.636719 320.367188 254.519531 320.335938 254.414062 320.273438 L 252.210938 318.90625 C 251.90625 318.71875 251.816406 318.320312 252 318.019531 C 252.191406 317.714844 252.585938 317.621094 252.890625 317.808594 L 255.09375 319.175781 C 255.398438 319.359375 255.492188 319.761719 255.300781 320.0625 C 255.183594 320.261719 254.96875 320.367188 254.753906 320.367188 " fill-opacity="1" fill-rule="nonzero"/><path fill="#000000" d="M 262.472656 325.148438 C 262.355469 325.148438 262.238281 325.117188 262.132812 325.054688 L 259.929688 323.6875 C 259.625 323.5 259.53125 323.101562 259.71875 322.796875 C 259.90625 322.492188 260.304688 322.398438 260.605469 322.589844 L 262.8125 323.953125 C 263.113281 324.140625 263.207031 324.539062 263.019531 324.84375 C 262.898438 325.039062 262.6875 325.148438 262.472656 325.148438 " fill-opacity="1" fill-rule="nonzero"/><path fill="#000000" d="M 254.46875 327.0625 C 254.355469 327.0625 254.238281 327.03125 254.132812 326.96875 C 253.828125 326.78125 253.734375 326.382812 253.917969 326.082031 L 255.269531 323.863281 C 255.457031 323.558594 255.855469 323.464844 256.15625 323.648438 C 256.460938 323.835938 256.558594 324.234375 256.371094 324.539062 L 255.019531 326.753906 C 254.898438 326.953125 254.683594 327.0625 254.46875 327.0625 " fill-opacity="1" fill-rule="nonzero"/><path fill="#000000" d="M 259.199219 319.304688 C 259.085938 319.304688 258.96875 319.273438 258.863281 319.210938 C 258.5625 319.023438 258.464844 318.625 258.648438 318.324219 L 260.003906 316.105469 C 260.1875 315.800781 260.585938 315.707031 260.886719 315.894531 C 261.195312 316.078125 261.289062 316.476562 261.101562 316.78125 L 259.753906 318.996094 C 259.628906 319.195312 259.417969 319.304688 259.199219 319.304688 " fill-opacity="1" fill-rule="nonzero"/><path fill="#000000" d="M 87.886719 49.023438 C 87.824219 49.023438 87.757812 49.011719 87.695312 48.992188 L 85.289062 48.242188 C 84.949219 48.132812 84.761719 47.769531 84.867188 47.433594 C 84.972656 47.089844 85.335938 46.898438 85.675781 47.007812 L 88.082031 47.761719 C 88.417969 47.867188 88.609375 48.230469 88.503906 48.570312 C 88.417969 48.847656 88.164062 49.023438 87.886719 49.023438 " fill-opacity="1" fill-rule="nonzero"/><path fill="#000000" d="M 79.46875 46.386719 C 79.40625 46.386719 79.34375 46.378906 79.277344 46.359375 L 76.875 45.605469 C 76.535156 45.496094 76.34375 45.132812 76.449219 44.792969 C 76.558594 44.453125 76.917969 44.261719 77.257812 44.371094 L 79.664062 45.125 C 80.003906 45.234375 80.191406 45.59375 80.085938 45.933594 C 80 46.210938 79.746094 46.386719 79.46875 46.386719 " fill-opacity="1" fill-rule="nonzero"/><path fill="#000000" d="M 83.398438 44.308594 C 83.339844 44.308594 83.273438 44.304688 83.210938 44.28125 C 82.871094 44.179688 82.679688 43.816406 82.785156 43.476562 L 83.519531 41.0625 C 83.625 40.722656 83.984375 40.53125 84.328125 40.632812 C 84.667969 40.742188 84.859375 41.101562 84.753906 41.441406 L 84.015625 43.855469 C 83.929688 44.132812 83.675781 44.308594 83.398438 44.308594 " fill-opacity="1" fill-rule="nonzero"/><path fill="#000000" d="M 80.816406 52.757812 C 80.753906 52.757812 80.691406 52.75 80.625 52.730469 C 80.285156 52.625 80.09375 52.261719 80.199219 51.921875 L 80.9375 49.511719 C 81.042969 49.167969 81.402344 48.976562 81.742188 49.082031 C 82.082031 49.183594 82.273438 49.546875 82.171875 49.886719 L 81.433594 52.300781 C 81.347656 52.578125 81.09375 52.757812 80.816406 52.757812 " fill-opacity="1" fill-rule="nonzero"/><path fill="#000000" d="M 123.183594 17.546875 C 123.074219 17.546875 122.96875 17.554688 122.859375 17.574219 C 121.730469 17.753906 120.957031 18.816406 121.132812 19.945312 C 121.222656 20.492188 121.515625 20.972656 121.960938 21.300781 C 122.410156 21.625 122.957031 21.757812 123.503906 21.671875 C 124.632812 21.492188 125.40625 20.425781 125.226562 19.300781 C 125.066406 18.277344 124.183594 17.546875 123.183594 17.546875 Z M 123.175781 22.988281 C 122.46875 22.988281 121.785156 22.765625 121.203125 22.34375 C 120.476562 21.816406 120 21.035156 119.859375 20.144531 C 119.574219 18.3125 120.828125 16.585938 122.65625 16.296875 C 124.488281 16.003906 126.210938 17.265625 126.5 19.097656 C 126.789062 20.929688 125.535156 22.660156 123.707031 22.949219 C 123.527344 22.976562 123.351562 22.988281 123.175781 22.988281 " fill-opacity="1" fill-rule="nonzero"/></svg>