<svg xmlns="http://www.w3.org/2000/svg" xmlns:xlink="http://www.w3.org/1999/xlink" width="500" zoomAndPan="magnify" viewBox="0 0 375 374.999991" height="500" preserveAspectRatio="xMidYMid meet" version="1.0"><defs><clipPath id="029419c41a"><path d="M 0 109.6875 L 115 109.6875 L 115 254 L 0 254 Z M 0 109.6875 " clip-rule="nonzero"/></clipPath><clipPath id="9a22b49eb4"><path d="M 260 109.6875 L 375 109.6875 L 375 254 L 260 254 Z M 260 109.6875 " clip-rule="nonzero"/></clipPath><clipPath id="177a50a36f"><path d="M 120 109.6875 L 257 109.6875 L 257 254 L 120 254 Z M 120 109.6875 " clip-rule="nonzero"/></clipPath></defs><g clip-path="url(#029419c41a)"><path fill="#6b5ef8" d="M 114.429688 191.679688 L 97.867188 191.679688 L 97.867188 141.445312 L 72.59375 141.445312 L 72.59375 191.679688 L 31.265625 191.679688 L 80.984375 109.695312 L 49.710938 109.695312 L 0 191.679688 L 0 217.007812 L 72.59375 217.007812 L 72.59375 253.5 L 97.867188 253.5 L 97.867188 217.007812 L 114.429688 217.007812 Z M 114.429688 191.679688 " fill-opacity="1" fill-rule="nonzero"/></g><g clip-path="url(#9a22b49eb4)"><path fill="#6b5ef8" d="M 375 191.679688 L 358.4375 191.679688 L 358.4375 141.445312 L 333.171875 141.445312 L 333.171875 191.679688 L 291.84375 191.679688 L 341.554688 109.695312 L 310.28125 109.695312 L 260.570312 191.679688 L 260.570312 217.007812 L 333.171875 217.007812 L 333.171875 253.5 L 358.4375 253.5 L 358.4375 217.007812 L 375 217.007812 Z M 375 191.679688 " fill-opacity="1" fill-rule="nonzero"/></g><g clip-path="url(#177a50a36f)"><path fill="#6b5ef8" d="M 188.335938 253.5 C 150.976562 253.5 120.59375 221.277344 120.59375 181.65625 C 120.59375 142.039062 150.976562 109.84375 188.335938 109.84375 C 225.695312 109.84375 256.078125 142.070312 256.078125 181.679688 C 256.078125 221.292969 225.6875 253.5 188.335938 253.5 Z M 188.335938 132.835938 C 163.734375 132.835938 143.71875 154.765625 143.71875 181.65625 C 143.71875 208.550781 163.734375 230.484375 188.335938 230.484375 C 212.9375 230.484375 232.945312 208.558594 232.945312 181.65625 C 232.945312 154.757812 212.929688 132.835938 188.335938 132.835938 Z M 188.335938 132.835938 " fill-opacity="1" fill-rule="nonzero"/></g><path fill="#fb865d" d="M 176.984375 178.863281 C 177.566406 178.671875 178.160156 178.535156 178.765625 178.453125 C 179.054688 178.5 178.507812 179.113281 178.1875 179.238281 C 178.1875 179.238281 178.617188 178.972656 178.523438 179.238281 C 178.429688 179.503906 177.914062 179.839844 177.914062 179.839844 L 177.585938 180.246094 C 177.585938 180.246094 177.796875 179.941406 177.960938 180.058594 C 178.125 180.175781 177.53125 181.117188 177.53125 181.117188 L 177.242188 182.425781 L 176.007812 180.8125 Z M 176.984375 178.863281 " fill-opacity="1" fill-rule="nonzero"/><path fill="#0e133f" d="M 209.03125 207.375 C 207.917969 207.246094 206.820312 207.027344 205.742188 206.71875 C 205.742188 206.992188 205.742188 207.289062 205.742188 207.609375 C 206.785156 207.894531 207.839844 208.097656 208.914062 208.222656 C 212.039062 208.589844 218.484375 210.679688 220.945312 214.910156 C 221.140625 214.675781 221.34375 214.445312 221.53125 214.210938 C 218.796875 209.882812 212.210938 207.734375 209.03125 207.375 Z M 209.03125 207.375 " fill-opacity="1" fill-rule="nonzero"/><path fill="#0e133f" d="M 176.164062 182.238281 C 176.117188 182.644531 176.578125 182.660156 176.578125 182.660156 C 176.578125 182.660156 176.695312 182.511719 176.757812 182.433594 C 176.65625 182.113281 176.519531 181.8125 176.351562 181.523438 C 176.277344 181.757812 176.214844 181.996094 176.164062 182.238281 Z M 176.164062 182.238281 " fill-opacity="1" fill-rule="nonzero"/><path fill="#0e133f" d="M 176.757812 182.433594 C 176.960938 182.175781 177.171875 181.914062 177.382812 181.648438 C 177.1875 181.234375 176.960938 180.835938 176.703125 180.460938 C 176.5625 180.820312 176.445312 181.1875 176.351562 181.5 C 176.523438 181.796875 176.65625 182.105469 176.757812 182.433594 Z M 176.757812 182.433594 " fill-opacity="1" fill-rule="nonzero"/><path fill="#0e133f" d="M 174.671875 178.109375 L 174.085938 178.734375 C 174.085938 178.734375 174.679688 179.308594 175.3125 180.066406 C 175.460938 179.785156 175.609375 179.511719 175.757812 179.285156 C 175.195312 178.609375 174.71875 178.15625 174.671875 178.109375 Z M 174.671875 178.109375 " fill-opacity="1" fill-rule="nonzero"/><path fill="#0e133f" d="M 180.695312 193.214844 C 178.492188 189.371094 177.953125 184.273438 177.851562 183.035156 C 177.773438 183.183594 177.683594 183.320312 177.578125 183.449219 C 177.347656 183.726562 177.199219 184.039062 177.125 184.390625 C 177.488281 187.652344 178.433594 190.734375 179.953125 193.640625 C 182.257812 197.671875 187.90625 202.457031 189.398438 203.679688 C 189.242188 203.171875 189.09375 202.667969 188.945312 202.167969 C 186.773438 200.304688 182.546875 196.441406 180.695312 193.214844 Z M 180.695312 193.214844 " fill-opacity="1" fill-rule="nonzero"/><path fill="#0e133f" d="M 223.492188 243.046875 C 220.710938 251.316406 205.8125 260.277344 186.40625 256.761719 C 173.070312 254.363281 170.90625 255.34375 169 256.203125 C 168.378906 256.523438 167.722656 256.730469 167.03125 256.824219 C 165.898438 257.089844 164.804688 257.476562 163.757812 257.988281 C 157.890625 260.480469 145.671875 265.664062 122.796875 260.246094 C 104.046875 255.796875 91.125 237.210938 84.4375 204.996094 C 82.1875 194.15625 76.710938 189.628906 67.1875 190.757812 C 66.414062 190.871094 65.730469 191.175781 65.132812 191.679688 L 67 191.679688 C 67.101562 191.679688 67.1875 191.625 67.289062 191.609375 C 76.40625 190.539062 81.429688 194.742188 83.601562 205.175781 C 84.703125 210.507812 87.296875 222.992188 93.148438 234.707031 C 100.421875 249.304688 110.335938 258.199219 122.59375 261.082031 C 128.839844 262.625 135.175781 263.425781 141.609375 263.488281 C 145.484375 263.535156 149.316406 263.160156 153.109375 262.367188 C 156.898438 261.578125 160.5625 260.382812 164.09375 258.789062 C 165.070312 258.308594 166.089844 257.941406 167.148438 257.683594 C 167.921875 257.574219 168.65625 257.34375 169.351562 256.996094 C 171.148438 256.210938 173.179688 255.265625 186.257812 257.613281 C 206.75 261.292969 222.367188 251.292969 224.539062 242.507812 C 224.550781 242.449219 224.550781 242.390625 224.539062 242.335938 C 224.21875 242.5625 223.851562 242.8125 223.492188 243.046875 Z M 223.492188 243.046875 " fill-opacity="1" fill-rule="nonzero"/><path fill="#0e133f" d="M 56.703125 217.007812 C 56.105469 217.78125 55.425781 218.464844 54.65625 219.066406 C 53.890625 219.667969 53.058594 220.164062 52.167969 220.558594 C 51.277344 220.949219 50.351562 221.222656 49.390625 221.382812 C 48.429688 221.542969 47.460938 221.578125 46.492188 221.496094 C 41.164062 221.222656 36.710938 219.144531 34.265625 215.800781 C 32.109375 212.863281 31.570312 209.027344 32.703125 204.703125 C 35.179688 195.089844 35.539062 189.972656 33.84375 187.476562 L 33.335938 188.304688 C 34.609375 190.71875 34.117188 195.691406 31.867188 204.5 C 30.671875 209.066406 31.25 213.15625 33.59375 216.351562 C 36.195312 219.90625 40.890625 222.105469 46.46875 222.394531 L 47.25 222.394531 C 48.277344 222.410156 49.289062 222.304688 50.289062 222.070312 C 51.289062 221.835938 52.25 221.488281 53.164062 221.019531 C 54.078125 220.550781 54.921875 219.976562 55.695312 219.300781 C 56.472656 218.625 57.152344 217.867188 57.742188 217.023438 Z M 56.703125 217.007812 " fill-opacity="1" fill-rule="nonzero"/><path fill="#0e133f" d="M 56.5 154.75 C 56.351562 154.40625 52.789062 146.226562 44.40625 143.683594 C 36.023438 141.136719 25.492188 144.75 21.53125 149.621094 C 19.289062 152.375 19.023438 156.816406 19.1875 160.027344 L 20.015625 158.65625 C 20.015625 155.773438 20.421875 152.335938 22.1875 150.167969 C 25.898438 145.59375 36.296875 142.125 44.148438 144.503906 C 52.140625 146.933594 55.671875 155.007812 55.703125 155.085938 C 55.738281 155.210938 55.8125 155.304688 55.929688 155.363281 C 56.046875 155.417969 56.167969 155.421875 56.289062 155.371094 C 56.410156 155.316406 56.488281 155.230469 56.527344 155.105469 C 56.566406 154.980469 56.554688 154.859375 56.484375 154.75 Z M 56.5 154.75 " fill-opacity="1" fill-rule="nonzero"/><path fill="#fb865d" d="M 181.476562 206.46875 C 181.476562 206.46875 182.203125 204.273438 182.054688 203.742188 C 181.90625 203.210938 175.460938 188.28125 175.507812 188.015625 C 176.046875 187.269531 176.480469 186.464844 176.804688 185.605469 C 177.140625 184.328125 177.21875 183.820312 177.585938 183.425781 C 177.953125 183.035156 178.59375 181.421875 178.429688 180.992188 C 178.265625 180.5625 177.265625 181.773438 176.585938 182.660156 C 176.585938 182.660156 176.125 182.660156 176.171875 182.238281 C 176.21875 181.8125 177.023438 179.246094 177.492188 179.105469 C 177.960938 178.964844 179.289062 178.234375 179.171875 177.578125 C 179.054688 176.917969 176.976562 178.289062 176.445312 178.460938 C 175.914062 178.632812 174.679688 181.421875 174.359375 182.019531 C 174.039062 182.613281 172.6875 186.269531 172.460938 187.03125 C 172.234375 187.789062 173.007812 189.527344 173.242188 190.265625 C 173.476562 191 176.421875 202.550781 177 203.128906 C 177.085938 203.917969 176.996094 204.6875 176.726562 205.433594 C 176.726562 205.433594 179.632812 206.875 181.476562 206.46875 Z M 181.476562 206.46875 " fill-opacity="1" fill-rule="nonzero"/><path fill="#0e133f" d="M 161.101562 199.207031 C 161.324219 198.863281 161.640625 198.691406 162.046875 198.691406 C 162.046875 198.691406 161.390625 197.90625 159.34375 198.210938 C 159.34375 198.210938 159.8125 197.429688 161.484375 197.429688 C 160.75 196.671875 159.886719 196.125 158.886719 195.785156 C 157.890625 195.449219 156.871094 195.355469 155.828125 195.511719 C 155.792969 195.269531 155.835938 195.039062 155.957031 194.824219 C 156.074219 194.609375 156.246094 194.453125 156.46875 194.351562 C 156.46875 194.351562 153.515625 193.828125 150.367188 198.265625 C 150.109375 198.023438 149.945312 197.726562 149.878906 197.375 C 149.816406 197.023438 149.859375 196.6875 150.015625 196.363281 C 150.015625 196.363281 147.890625 198.714844 148.117188 201.015625 C 148.34375 203.320312 148.632812 203.59375 148.632812 203.59375 C 148.632812 203.59375 147.03125 203.195312 146.945312 202.355469 C 146.945312 202.355469 146.367188 204.703125 147.929688 206.167969 C 147.570312 206.910156 147.5 207.679688 147.71875 208.472656 C 147.71875 208.472656 147.960938 207.539062 148.375 207.398438 C 148.375 207.398438 149.9375 211.964844 153.257812 212.675781 C 156.578125 213.390625 158.367188 212.480469 158.367188 212.480469 C 158.367188 212.480469 160.960938 212.050781 161.414062 212.890625 L 162.046875 211.417969 L 162.867188 211.078125 C 162.867188 211.078125 162.046875 204.460938 162.046875 204.414062 C 162.046875 204.367188 161.101562 199.207031 161.101562 199.207031 Z M 161.101562 199.207031 " fill-opacity="1" fill-rule="nonzero"/><path fill="#fb865d" d="M 161.101562 199.207031 C 161.796875 199.527344 162.53125 199.707031 163.296875 199.738281 C 164.203125 199.628906 165.117188 199.574219 166.03125 199.574219 C 166.21875 199.707031 166.03125 200.703125 166.351562 200.898438 C 166.671875 201.09375 168.5 203.25 168.34375 204.3125 C 168.1875 205.378906 165.898438 206.339844 166.1875 207.242188 C 166.476562 208.144531 168.53125 209.332031 168.53125 209.332031 C 168.769531 209.730469 168.878906 210.160156 168.859375 210.625 C 168.789062 211.300781 165.0625 214.195312 165.0625 214.195312 L 165 214.484375 L 161.695312 212.214844 C 161.832031 211.558594 161.847656 210.898438 161.742188 210.234375 C 161.742188 210.234375 162.273438 210.507812 162.351562 210.898438 C 162.351562 210.898438 162.53125 208.550781 161.117188 207.210938 C 161.117188 207.210938 159.3125 207.5625 158.320312 206.789062 C 157.328125 206.011719 157.726562 204.328125 158.578125 204.25 L 159.6875 204.132812 C 159.6875 204.132812 157.648438 203.726562 156.875 202.816406 C 158.175781 202.800781 159.457031 202.648438 160.726562 202.363281 C 160.726562 202.363281 158.382812 201.832031 157.679688 201.582031 C 157.679688 201.574219 160.15625 200.882812 161.101562 199.207031 Z M 161.101562 199.207031 " fill-opacity="1" fill-rule="nonzero"/><path fill="#0e133f" d="M 193.398438 213.90625 C 193.398438 213.90625 193.976562 197.359375 194.359375 193.105469 C 194.742188 188.855469 195 179.839844 199.117188 178.226562 C 203.234375 176.613281 220.671875 165.28125 220.671875 165.28125 L 224.8125 169.472656 C 224.8125 169.472656 214.40625 179.746094 211.609375 180.835938 C 208.8125 181.921875 205.828125 184.539062 205.445312 186.019531 C 205.0625 187.5 205.765625 203.890625 205.734375 205.019531 C 205.703125 206.144531 206.054688 221.121094 205.734375 222.566406 C 205.414062 224.015625 204.0625 228.394531 199.40625 229.042969 L 195.835938 229.203125 C 195.835938 229.203125 192.1875 218.066406 193.398438 213.90625 Z M 193.398438 213.90625 " fill-opacity="1" fill-rule="nonzero"/><path fill="#0e133f" d="M 199.632812 228.011719 L 201.976562 228.136719 C 201.976562 228.136719 206.054688 227.242188 207.53125 225.371094 C 209.007812 223.5 208.3125 217.839844 204.765625 212.960938 L 199.601562 191.03125 C 201.757812 191.4375 203.929688 191.582031 206.117188 191.460938 C 209.34375 191.226562 220.765625 188.179688 220.765625 188.179688 L 219.421875 182.050781 C 219.421875 182.050781 198.171875 183.207031 197.203125 183.207031 C 196.234375 183.207031 189.296875 182.582031 187.46875 184.507812 C 185.640625 186.433594 186.265625 192.675781 186.890625 195.183594 C 187.515625 197.6875 192.359375 213.445312 192.359375 213.445312 Z M 199.632812 228.011719 " fill-opacity="1" fill-rule="nonzero"/><path fill="#fb865d" d="M 158.0625 223.890625 C 158.0625 223.890625 154.109375 230.816406 154.109375 232.507812 C 154.253906 234.265625 154.671875 235.953125 155.367188 237.574219 C 155.84375 238.882812 163.179688 251.921875 163.601562 252.40625 C 163.675781 253.582031 163.839844 254.746094 164.101562 255.898438 C 164.527344 257.210938 165.0625 258.476562 165.710938 259.695312 C 166.066406 259.699219 166.417969 259.65625 166.765625 259.570312 C 166.765625 259.570312 166.765625 260.097656 167.039062 260.167969 C 167.476562 260.175781 167.914062 260.140625 168.34375 260.066406 C 168.34375 260.066406 168.34375 260.324219 168.875 260.324219 C 169.40625 260.324219 170.0625 260.035156 170.125 259.757812 C 170.472656 259.921875 170.824219 259.921875 171.171875 259.757812 C 171.570312 259.46875 171.296875 257.042969 171.296875 257.042969 C 171.296875 257.042969 171.617188 257.253906 171.664062 256.769531 C 171.710938 256.28125 171.664062 255.15625 171.3125 254.847656 C 170.960938 254.542969 168.226562 251.519531 167.492188 251.175781 C 167.492188 251.175781 165 246.476562 163.9375 243.902344 C 162.875 241.324219 161.53125 235.820312 159.25 234.246094 C 159.25 234.246094 163.234375 229.898438 163.8125 229.058594 Z M 158.0625 223.890625 " fill-opacity="1" fill-rule="nonzero"/><path fill="#ffbb19" d="M 166.6875 211.925781 C 165.191406 212.152344 163.917969 212.816406 162.867188 213.90625 C 161.148438 215.691406 156.554688 224.761719 156.554688 224.761719 C 157.652344 225.269531 158.648438 225.9375 159.539062 226.757812 C 160.8125 228.085938 162.160156 229.328125 163.585938 230.484375 C 163.84375 230.53125 167.953125 223.789062 167.953125 223.789062 C 167.953125 223.789062 171.078125 228.136719 179.234375 229.625 C 183.683594 230.433594 188.167969 230.820312 192.6875 230.785156 C 195.0625 230.53125 197.378906 230.007812 199.632812 229.21875 C 199.632812 229.21875 199.632812 228.785156 198.921875 228.652344 C 198.210938 228.519531 194.703125 223.632812 194.234375 220.085938 C 193.929688 217.605469 193.765625 215.121094 193.75 212.621094 C 193.75 212.621094 193.53125 212.222656 193.171875 212.425781 C 192.691406 212.730469 192.171875 212.917969 191.609375 212.992188 C 191.195312 212.992188 185.359375 210.015625 180.945312 209.285156 C 179.265625 208.96875 177.574219 208.8125 175.867188 208.816406 C 173.328125 208.871094 168.476562 209.105469 168.476562 209.105469 C 168.476562 209.105469 168.234375 209.058594 168.234375 209.449219 C 168.234375 209.84375 168.023438 211.582031 166.6875 211.925781 Z M 166.6875 211.925781 " fill-opacity="1" fill-rule="nonzero"/><path fill="#ffbb19" d="M 171.023438 209.582031 C 171.023438 209.582031 175.09375 205.191406 175.914062 204.703125 C 176.90625 205.171875 177.949219 205.453125 179.039062 205.550781 C 180.679688 205.675781 182.53125 205.597656 182.75 205.699219 C 182.96875 205.800781 181.1875 210.890625 181.1875 210.890625 C 181.1875 210.890625 172.085938 210.148438 171.023438 209.582031 Z M 171.023438 209.582031 " fill-opacity="1" fill-rule="nonzero"/><path fill="#fb865d" d="M 221.15625 181.976562 L 226.484375 181.976562 C 226.484375 181.976562 227.835938 182.824219 227.8125 184.039062 C 227.71875 184.933594 227.402344 185.746094 226.867188 186.472656 L 222.460938 186.832031 Z M 221.15625 181.976562 " fill-opacity="1" fill-rule="nonzero"/><path fill="#0e133f" d="M 232.335938 172.03125 C 231.429688 171.664062 230.1875 171.703125 229.859375 172.636719 C 228.664062 176.050781 225.835938 181.25 225.796875 181.570312 C 225.757812 181.890625 225.859375 181.976562 225.859375 181.976562 L 226.171875 181.976562 C 226.171875 181.976562 227.351562 182.972656 227.351562 183.890625 C 227.242188 184.789062 227.011719 185.65625 226.65625 186.488281 L 226.265625 186.488281 C 226.265625 186.488281 225.882812 186.488281 226.335938 186.800781 C 226.789062 187.117188 229.960938 187.09375 230.960938 187.046875 C 231.78125 185.203125 231.921875 180.65625 232 179.730469 C 232.078125 178.808594 232.273438 173.808594 232.335938 172.03125 Z M 232.335938 172.03125 " fill-opacity="1" fill-rule="nonzero"/><path fill="#dfe3ff" d="M 233.34375 172.925781 C 233.148438 172.46875 232.8125 172.167969 232.335938 172.03125 C 232.273438 173.808594 232.078125 178.871094 232 179.761719 C 231.921875 180.65625 231.78125 185.242188 230.960938 187.078125 L 231.226562 187.078125 C 231.59375 187.007812 232.789062 186.898438 232.835938 185.070312 C 232.882812 183.246094 233.59375 173.96875 233.34375 172.925781 Z M 233.34375 172.925781 " fill-opacity="1" fill-rule="nonzero"/><path fill="#dfe3ff" d="M 228.90625 179.011719 C 228.839844 179.003906 228.785156 178.980469 228.742188 178.933594 C 228.371094 178.550781 227.929688 178.421875 227.414062 178.539062 C 227.277344 178.5625 227.191406 178.507812 227.164062 178.367188 C 227.144531 178.234375 227.203125 178.148438 227.335938 178.117188 C 227.652344 178.050781 227.96875 178.0625 228.277344 178.160156 C 228.589844 178.253906 228.855469 178.421875 229.078125 178.65625 C 229.175781 178.757812 229.175781 178.855469 229.078125 178.957031 C 229.03125 179.003906 228.972656 179.023438 228.90625 179.011719 Z M 228.90625 179.011719 " fill-opacity="1" fill-rule="nonzero"/><path fill="#dfe3ff" d="M 229.4375 177.78125 C 229.371094 177.78125 229.316406 177.753906 229.273438 177.703125 C 228.902344 177.324219 228.457031 177.191406 227.9375 177.3125 C 227.796875 177.335938 227.714844 177.277344 227.691406 177.136719 C 227.667969 176.992188 227.726562 176.910156 227.867188 176.886719 C 228.183594 176.820312 228.496094 176.832031 228.804688 176.929688 C 229.113281 177.027344 229.378906 177.191406 229.601562 177.429688 C 229.699219 177.527344 229.699219 177.625 229.601562 177.726562 C 229.558594 177.773438 229.503906 177.792969 229.4375 177.78125 Z M 229.4375 177.78125 " fill-opacity="1" fill-rule="nonzero"/><path fill="#fb865d" d="M 221.875 164.273438 L 226.109375 161.039062 C 226.109375 161.039062 227.671875 160.890625 228.40625 161.867188 C 228.875 162.636719 229.117188 163.472656 229.132812 164.375 L 225.84375 167.339844 Z M 221.875 164.273438 " fill-opacity="1" fill-rule="nonzero"/><path fill="#0e133f" d="M 224.75 149.566406 C 223.804688 149.824219 222.84375 150.605469 223.148438 151.554688 C 224.25 155 225.140625 160.839844 225.304688 161.125 C 225.46875 161.40625 225.601562 161.414062 225.601562 161.414062 L 225.851562 161.226562 C 225.851562 161.226562 227.414062 161.296875 227.945312 162.007812 C 228.402344 162.789062 228.742188 163.621094 228.960938 164.5 L 228.671875 164.765625 C 228.671875 164.765625 228.382812 165.007812 228.921875 164.960938 C 229.460938 164.914062 231.976562 162.996094 232.742188 162.351562 C 232.28125 160.386719 229.617188 156.683594 229.148438 155.890625 C 228.679688 155.101562 225.78125 151.019531 224.75 149.566406 Z M 224.75 149.566406 " fill-opacity="1" fill-rule="nonzero"/><path fill="#dfe3ff" d="M 226.085938 149.667969 C 225.65625 149.421875 225.210938 149.386719 224.75 149.566406 C 225.773438 151.019531 228.65625 155.164062 229.148438 155.914062 C 229.640625 156.667969 232.273438 160.410156 232.742188 162.375 L 232.945312 162.1875 C 233.1875 161.914062 234.046875 161.125 233.007812 159.621094 C 231.96875 158.117188 226.929688 150.332031 226.085938 149.667969 Z M 226.085938 149.667969 " fill-opacity="1" fill-rule="nonzero"/><path fill="#dfe3ff" d="M 226.226562 157.207031 C 226.171875 157.25 226.113281 157.261719 226.046875 157.246094 C 225.523438 157.167969 225.089844 157.332031 224.75 157.742188 C 224.648438 157.839844 224.546875 157.839844 224.445312 157.742188 C 224.339844 157.640625 224.339844 157.535156 224.445312 157.433594 C 224.65625 157.1875 224.910156 157.011719 225.214844 156.898438 C 225.519531 156.785156 225.828125 156.757812 226.148438 156.808594 C 226.28125 156.84375 226.335938 156.929688 226.3125 157.066406 C 226.296875 157.121094 226.269531 157.167969 226.226562 157.207031 Z M 226.226562 157.207031 " fill-opacity="1" fill-rule="nonzero"/><path fill="#dfe3ff" d="M 225.90625 155.898438 C 225.855469 155.941406 225.796875 155.957031 225.734375 155.9375 C 225.210938 155.863281 224.78125 156.03125 224.4375 156.433594 C 224.339844 156.535156 224.242188 156.539062 224.136719 156.445312 C 224.03125 156.347656 224.027344 156.246094 224.125 156.144531 C 224.335938 155.898438 224.589844 155.71875 224.894531 155.609375 C 225.199219 155.5 225.507812 155.46875 225.828125 155.523438 C 225.964844 155.550781 226.019531 155.636719 225.992188 155.773438 C 225.976562 155.824219 225.949219 155.867188 225.90625 155.898438 Z M 225.90625 155.898438 " fill-opacity="1" fill-rule="nonzero"/><path fill="#6570fd" d="M 221.335938 163.707031 C 221.019531 163.898438 220.734375 164.128906 220.484375 164.398438 C 220.191406 164.667969 219.992188 164.996094 219.890625 165.382812 C 219.851562 165.515625 219.851562 165.648438 219.890625 165.785156 C 219.929688 165.898438 219.992188 165.996094 220.078125 166.082031 C 220.972656 166.980469 221.933594 167.808594 222.953125 168.5625 C 223.46875 169.121094 224.085938 169.523438 224.804688 169.769531 C 224.9375 169.796875 225.070312 169.796875 225.203125 169.769531 C 225.425781 169.683594 225.605469 169.542969 225.742188 169.347656 L 226.625 168.304688 C 226.785156 168.144531 226.890625 167.953125 226.9375 167.734375 C 226.949219 167.550781 226.910156 167.375 226.820312 167.214844 C 226.652344 166.90625 226.449219 166.621094 226.210938 166.363281 C 225.476562 165.660156 224.695312 165.015625 223.867188 164.429688 C 223.59375 164.203125 223.308594 163.996094 223.007812 163.808594 L 222.789062 163.667969 C 222.730469 163.628906 222.675781 163.585938 222.625 163.535156 C 222.445312 163.441406 222.253906 163.414062 222.054688 163.449219 C 221.847656 163.484375 221.648438 163.554688 221.460938 163.652344 Z M 221.335938 163.707031 " fill-opacity="1" fill-rule="nonzero"/><path fill="#6570fd" d="M 222.179688 182.675781 C 222.179688 182.675781 221.710938 181.320312 220.945312 181.367188 C 220.179688 181.414062 219.882812 181.625 219.59375 181.609375 C 219.378906 181.609375 219.195312 181.6875 219.042969 181.839844 C 218.890625 181.992188 218.8125 182.175781 218.8125 182.394531 C 218.859375 182.957031 219.539062 188.511719 220.375 188.738281 C 221.210938 188.964844 221.445312 188.476562 221.882812 188.445312 C 222.320312 188.414062 223.445312 188.125 223.523438 187.320312 C 223.15625 185.746094 222.707031 184.199219 222.179688 182.675781 Z M 222.179688 182.675781 " fill-opacity="1" fill-rule="nonzero"/><path fill="#0e133f" d="M 162.039062 199.996094 C 162.25 200.039062 162.421875 200.117188 162.550781 200.230469 C 162.683594 200.347656 162.738281 200.464844 162.714844 200.585938 C 162.691406 200.707031 162.59375 200.796875 162.429688 200.851562 C 162.265625 200.90625 162.078125 200.914062 161.867188 200.875 C 161.660156 200.832031 161.488281 200.753906 161.355469 200.640625 C 161.226562 200.523438 161.171875 200.40625 161.195312 200.285156 C 161.21875 200.164062 161.3125 200.078125 161.480469 200.019531 C 161.644531 199.964844 161.832031 199.957031 162.039062 199.996094 Z M 162.039062 199.996094 " fill-opacity="1" fill-rule="nonzero"/><path fill="#0e133f" d="M 68.351562 161.046875 L 66.539062 158.351562 C 66.1875 157.832031 65.75 157.410156 65.21875 157.078125 C 64.691406 156.746094 64.117188 156.535156 63.5 156.449219 L 58.96875 155.8125 L 57.8125 154.066406 C 57.707031 153.914062 57.5625 153.816406 57.378906 153.78125 C 57.195312 153.742188 57.023438 153.777344 56.867188 153.878906 L 55.304688 154.945312 C 55.148438 155.050781 55.054688 155.191406 55.019531 155.375 C 54.980469 155.558594 55.015625 155.730469 55.117188 155.882812 L 56.25 157.613281 L 55.015625 162.140625 C 54.84375 162.761719 54.808594 163.386719 54.914062 164.019531 C 55.019531 164.652344 55.25 165.238281 55.609375 165.769531 L 57.390625 168.414062 Z M 68.351562 161.046875 " fill-opacity="1" fill-rule="nonzero"/><path fill="#524fd0" d="M 58.382812 170.386719 C 60 170.332031 62.453125 169.371094 64.890625 167.726562 C 67.328125 166.082031 69.140625 164.15625 69.796875 162.675781 L 70.664062 162.085938 L 69.882812 160.90625 C 69 159.589844 65.335938 160.519531 61.703125 162.972656 C 58.070312 165.421875 55.84375 168.453125 56.726562 169.792969 L 57.507812 170.976562 Z M 58.382812 170.386719 " fill-opacity="1" fill-rule="nonzero"/><path fill="#b583fd" d="M 70.671875 162.074219 C 70.777344 162.230469 70.835938 162.414062 70.855469 162.621094 C 70.875 162.832031 70.851562 163.066406 70.78125 163.320312 C 70.714844 163.578125 70.601562 163.851562 70.449219 164.144531 C 70.296875 164.433594 70.105469 164.738281 69.875 165.054688 C 69.640625 165.375 69.375 165.695312 69.074219 166.027344 C 68.773438 166.355469 68.445312 166.683594 68.085938 167.015625 C 67.726562 167.34375 67.34375 167.667969 66.941406 167.984375 C 66.539062 168.300781 66.121094 168.605469 65.6875 168.898438 C 65.253906 169.191406 64.816406 169.464844 64.375 169.71875 C 63.929688 169.976562 63.488281 170.210938 63.046875 170.417969 C 62.609375 170.628906 62.179688 170.8125 61.761719 170.96875 C 61.34375 171.125 60.945312 171.25 60.566406 171.347656 C 60.1875 171.441406 59.832031 171.507812 59.503906 171.539062 C 59.179688 171.574219 58.882812 171.574219 58.621094 171.539062 C 58.359375 171.507812 58.132812 171.445312 57.945312 171.347656 C 57.757812 171.25 57.613281 171.125 57.507812 170.96875 C 57.402344 170.8125 57.339844 170.628906 57.324219 170.421875 C 57.304688 170.210938 57.328125 169.976562 57.398438 169.722656 C 57.464844 169.464844 57.578125 169.191406 57.730469 168.898438 C 57.882812 168.609375 58.074219 168.304688 58.304688 167.984375 C 58.535156 167.667969 58.804688 167.347656 59.105469 167.015625 C 59.40625 166.6875 59.734375 166.359375 60.09375 166.027344 C 60.453125 165.699219 60.835938 165.375 61.238281 165.058594 C 61.640625 164.742188 62.058594 164.4375 62.492188 164.144531 C 62.921875 163.851562 63.359375 163.578125 63.804688 163.324219 C 64.25 163.066406 64.691406 162.832031 65.132812 162.625 C 65.570312 162.414062 66 162.230469 66.417969 162.074219 C 66.835938 161.917969 67.234375 161.792969 67.613281 161.695312 C 67.992188 161.597656 68.347656 161.535156 68.671875 161.503906 C 69 161.46875 69.296875 161.46875 69.558594 161.503906 C 69.820312 161.535156 70.046875 161.597656 70.230469 161.695312 C 70.417969 161.792969 70.566406 161.917969 70.671875 162.074219 Z M 70.671875 162.074219 " fill-opacity="1" fill-rule="nonzero"/><path fill="#0e133f" d="M 62.605469 167.554688 C 62.6875 167.671875 62.664062 167.839844 62.539062 168.046875 C 62.410156 168.257812 62.214844 168.453125 61.953125 168.628906 C 61.691406 168.804688 61.441406 168.914062 61.199219 168.953125 C 60.957031 168.992188 60.796875 168.953125 60.714844 168.832031 C 60.636719 168.710938 60.660156 168.546875 60.785156 168.335938 C 60.914062 168.128906 61.109375 167.933594 61.367188 167.757812 C 61.628906 167.582031 61.882812 167.472656 62.125 167.433594 C 62.367188 167.394531 62.527344 167.433594 62.605469 167.554688 Z M 62.605469 167.554688 " fill-opacity="1" fill-rule="nonzero"/><path fill="#0e133f" d="M 67.488281 164.253906 C 67.570312 164.375 67.546875 164.539062 67.417969 164.746094 C 67.292969 164.957031 67.097656 165.152344 66.835938 165.328125 C 66.574219 165.503906 66.324219 165.613281 66.082031 165.652344 C 65.839844 165.691406 65.679688 165.652344 65.597656 165.53125 C 65.515625 165.410156 65.539062 165.246094 65.667969 165.035156 C 65.792969 164.828125 65.988281 164.632812 66.25 164.457031 C 66.511719 164.28125 66.761719 164.171875 67.003906 164.132812 C 67.246094 164.09375 67.40625 164.132812 67.488281 164.253906 Z M 67.488281 164.253906 " fill-opacity="1" fill-rule="nonzero"/><path fill="#0e133f" d="M 161.570312 173.472656 L 163.695312 175.925781 C 164.105469 176.398438 164.59375 176.765625 165.160156 177.027344 C 165.726562 177.292969 166.320312 177.429688 166.945312 177.4375 L 171.515625 177.515625 L 172.898438 179.082031 C 173.023438 179.222656 173.179688 179.296875 173.367188 179.308594 C 173.554688 179.320312 173.71875 179.265625 173.859375 179.144531 L 175.28125 177.898438 C 175.421875 177.777344 175.5 177.621094 175.511719 177.433594 C 175.523438 177.246094 175.46875 177.082031 175.34375 176.941406 L 173.960938 175.375 L 174.632812 170.734375 C 174.726562 170.097656 174.679688 169.472656 174.5 168.855469 C 174.320312 168.242188 174.015625 167.691406 173.59375 167.207031 L 171.507812 164.796875 Z M 161.570312 173.472656 " fill-opacity="1" fill-rule="nonzero"/><path fill="#524fd0" d="M 170.3125 162.980469 C 168.710938 163.230469 166.40625 164.484375 164.179688 166.425781 C 161.953125 168.367188 160.40625 170.488281 159.9375 172.039062 L 159.15625 172.738281 L 160.085938 173.808594 C 161.125 175 164.640625 173.628906 167.945312 170.742188 C 171.25 167.851562 173.09375 164.554688 172.054688 163.355469 L 171.09375 162.3125 Z M 170.3125 162.980469 " fill-opacity="1" fill-rule="nonzero"/><path fill="#b583fd" d="M 171.105469 162.289062 C 171.230469 162.429688 171.3125 162.601562 171.359375 162.808594 C 171.402344 163.015625 171.40625 163.25 171.371094 163.511719 C 171.332031 163.773438 171.257812 164.058594 171.140625 164.367188 C 171.023438 164.675781 170.871094 165.003906 170.679688 165.347656 C 170.492188 165.6875 170.265625 166.042969 170.007812 166.40625 C 169.75 166.769531 169.460938 167.140625 169.148438 167.511719 C 168.832031 167.882812 168.492188 168.25 168.132812 168.613281 C 167.769531 168.976562 167.390625 169.332031 167 169.675781 C 166.605469 170.019531 166.207031 170.34375 165.796875 170.652344 C 165.386719 170.960938 164.976562 171.246094 164.566406 171.511719 C 164.15625 171.773438 163.753906 172.007812 163.359375 172.214844 C 162.960938 172.421875 162.582031 172.59375 162.21875 172.738281 C 161.851562 172.878906 161.507812 172.988281 161.1875 173.058594 C 160.867188 173.132812 160.574219 173.167969 160.308594 173.167969 C 160.046875 173.167969 159.816406 173.132812 159.617188 173.0625 C 159.421875 172.988281 159.257812 172.882812 159.136719 172.738281 C 159.011719 172.597656 158.929688 172.421875 158.886719 172.21875 C 158.839844 172.011719 158.835938 171.777344 158.875 171.515625 C 158.910156 171.253906 158.984375 170.96875 159.101562 170.660156 C 159.21875 170.347656 159.371094 170.023438 159.5625 169.679688 C 159.75 169.335938 159.976562 168.984375 160.234375 168.621094 C 160.492188 168.253906 160.78125 167.886719 161.09375 167.515625 C 161.410156 167.144531 161.75 166.777344 162.113281 166.414062 C 162.472656 166.050781 162.851562 165.695312 163.242188 165.351562 C 163.636719 165.007812 164.039062 164.683594 164.445312 164.375 C 164.855469 164.066406 165.265625 163.78125 165.675781 163.515625 C 166.085938 163.253906 166.488281 163.019531 166.882812 162.8125 C 167.28125 162.605469 167.660156 162.433594 168.023438 162.289062 C 168.390625 162.148438 168.734375 162.039062 169.054688 161.96875 C 169.375 161.894531 169.667969 161.859375 169.933594 161.859375 C 170.195312 161.859375 170.425781 161.894531 170.625 161.964844 C 170.824219 162.039062 170.984375 162.144531 171.105469 162.289062 Z M 171.105469 162.289062 " fill-opacity="1" fill-rule="nonzero"/><path fill="#0e133f" d="M 168.054688 164.90625 L 165.03125 161.53125 C 164.941406 161.417969 164.832031 161.332031 164.707031 161.265625 C 164.578125 161.199219 164.445312 161.160156 164.304688 161.148438 C 164.160156 161.136719 164.023438 161.152344 163.886719 161.199219 C 163.75 161.242188 163.628906 161.3125 163.523438 161.410156 C 163.417969 161.503906 163.332031 161.617188 163.273438 161.746094 C 163.210938 161.875 163.179688 162.011719 163.171875 162.15625 C 163.167969 162.296875 163.191406 162.4375 163.242188 162.570312 C 163.292969 162.703125 163.371094 162.820312 163.46875 162.925781 L 166.484375 166.285156 C 166.679688 166.480469 167.171875 166.355469 167.59375 165.980469 C 168.015625 165.601562 168.226562 165.117188 168.039062 164.90625 Z M 168.054688 164.90625 " fill-opacity="1" fill-rule="nonzero"/><path fill="#0e133f" d="M 163.75 168.78125 L 160.726562 165.40625 C 160.636719 165.296875 160.527344 165.207031 160.402344 165.140625 C 160.273438 165.074219 160.140625 165.035156 160 165.023438 C 159.855469 165.011719 159.71875 165.027344 159.582031 165.074219 C 159.445312 165.121094 159.324219 165.191406 159.21875 165.285156 C 159.113281 165.382812 159.027344 165.492188 158.96875 165.621094 C 158.90625 165.753906 158.875 165.890625 158.867188 166.03125 C 158.863281 166.175781 158.886719 166.3125 158.9375 166.445312 C 158.988281 166.582031 159.066406 166.699219 159.164062 166.800781 L 162.1875 170.144531 C 162.390625 170.339844 162.875 170.214844 163.304688 169.839844 C 163.734375 169.464844 163.9375 168.984375 163.75 168.765625 Z M 163.75 168.78125 " fill-opacity="1" fill-rule="nonzero"/><path fill="#ff6e48" d="M 164.132812 201.714844 C 164.132812 201.960938 164.046875 202.171875 163.871094 202.34375 C 163.699219 202.519531 163.488281 202.605469 163.242188 202.605469 C 162.996094 202.605469 162.785156 202.519531 162.613281 202.34375 C 162.4375 202.171875 162.351562 201.960938 162.351562 201.714844 C 162.351562 201.46875 162.4375 201.257812 162.613281 201.082031 C 162.785156 200.90625 162.996094 200.820312 163.242188 200.820312 C 163.488281 200.820312 163.699219 200.90625 163.871094 201.082031 C 164.046875 201.257812 164.132812 201.46875 164.132812 201.714844 Z M 164.132812 201.714844 " fill-opacity="1" fill-rule="nonzero"/><path fill="#f2700d" d="M 181.40625 209.558594 C 181.378906 209.570312 181.347656 209.570312 181.320312 209.558594 C 180.210938 209.167969 179.070312 208.949219 177.898438 208.902344 C 176.132812 208.804688 174.375 208.851562 172.617188 209.035156 C 172.46875 209.058594 172.390625 208.996094 172.375 208.847656 C 172.363281 208.710938 172.425781 208.632812 172.5625 208.613281 C 174.347656 208.417969 176.136719 208.375 177.929688 208.480469 C 179.160156 208.515625 180.347656 208.746094 181.5 209.175781 C 181.628906 209.238281 181.660156 209.332031 181.601562 209.457031 C 181.558594 209.53125 181.492188 209.566406 181.40625 209.558594 Z M 181.40625 209.558594 " fill-opacity="1" fill-rule="nonzero"/><path fill="#f2700d" d="M 163.140625 213.859375 C 163.082031 213.859375 163.03125 213.839844 162.992188 213.796875 C 162.894531 213.695312 162.894531 213.59375 162.992188 213.492188 C 163.886719 212.601562 164.949219 212.035156 166.1875 211.800781 C 167.152344 211.617188 168.082031 211.726562 168.976562 212.128906 C 169.097656 212.199219 169.125 212.296875 169.054688 212.417969 C 168.984375 212.539062 168.886719 212.566406 168.765625 212.496094 C 167.953125 212.15625 167.109375 212.066406 166.242188 212.222656 C 165.105469 212.445312 164.125 212.96875 163.304688 213.789062 C 163.261719 213.835938 163.207031 213.859375 163.140625 213.859375 Z M 163.140625 213.859375 " fill-opacity="1" fill-rule="nonzero"/><path fill="#f2700d" d="M 168.0625 223.804688 C 168.011719 223.804688 167.964844 223.789062 167.921875 223.757812 C 167.824219 223.65625 167.824219 223.554688 167.921875 223.453125 C 168.890625 222.273438 169.773438 221.03125 170.570312 219.726562 C 170.9375 218.898438 171.113281 218.035156 171.09375 217.132812 C 171.089844 216.992188 171.15625 216.917969 171.296875 216.90625 C 171.433594 216.90625 171.507812 216.972656 171.515625 217.109375 C 171.546875 218.089844 171.355469 219.023438 170.945312 219.914062 C 170.140625 221.253906 169.238281 222.523438 168.242188 223.726562 C 168.199219 223.789062 168.136719 223.8125 168.0625 223.804688 Z M 168.0625 223.804688 " fill-opacity="1" fill-rule="nonzero"/><path fill="#f2700d" d="M 169.75 221.582031 C 169.636719 221.574219 169.570312 221.515625 169.546875 221.40625 C 169.523438 221.296875 169.5625 221.214844 169.664062 221.167969 C 170.96875 220.585938 171.882812 218.652344 171.890625 218.628906 C 171.953125 218.507812 172.046875 218.472656 172.171875 218.527344 C 172.304688 218.582031 172.339844 218.679688 172.28125 218.808594 C 172.242188 218.894531 171.296875 220.914062 169.84375 221.566406 Z M 169.75 221.582031 " fill-opacity="1" fill-rule="nonzero"/><path fill="#f2700d" d="M 194.648438 225.230469 C 194.589844 225.230469 194.539062 225.210938 194.5 225.167969 C 190.59375 221.183594 191.375 213.921875 191.421875 213.617188 C 191.425781 213.558594 191.449219 213.507812 191.496094 213.472656 C 191.542969 213.433594 191.597656 213.417969 191.65625 213.429688 C 191.796875 213.445312 191.859375 213.523438 191.84375 213.664062 C 191.84375 213.742188 191.0625 221.027344 194.804688 224.863281 C 194.898438 224.964844 194.898438 225.066406 194.804688 225.167969 C 194.761719 225.210938 194.710938 225.234375 194.648438 225.230469 Z M 194.648438 225.230469 " fill-opacity="1" fill-rule="nonzero"/><path fill="#f2700d" d="M 198.054688 229.195312 C 190.679688 228.753906 189.203125 217.257812 189.195312 217.148438 C 189.171875 217.007812 189.234375 216.925781 189.375 216.90625 C 189.515625 216.890625 189.597656 216.953125 189.617188 217.09375 C 189.617188 217.203125 191.0625 228.347656 198.078125 228.761719 C 198.21875 228.773438 198.285156 228.847656 198.28125 228.988281 C 198.269531 229.132812 198.195312 229.199219 198.054688 229.195312 Z M 198.054688 229.195312 " fill-opacity="1" fill-rule="nonzero"/><path fill="#6570fd" d="M 193.75 212.167969 C 193.613281 212.171875 193.542969 212.109375 193.539062 211.972656 C 193.09375 207.351562 195.359375 184.773438 195.453125 183.78125 C 195.46875 183.632812 195.546875 183.570312 195.695312 183.589844 C 195.753906 183.59375 195.804688 183.621094 195.839844 183.667969 C 195.878906 183.714844 195.890625 183.765625 195.882812 183.828125 C 195.882812 184.0625 193.539062 207.320312 193.960938 211.902344 C 193.976562 212.046875 193.914062 212.125 193.765625 212.136719 Z M 193.75 212.167969 " fill-opacity="1" fill-rule="nonzero"/><path fill="#6570fd" d="M 205.328125 191.289062 C 205.195312 191.289062 205.125 191.226562 205.117188 191.09375 C 205.117188 190.945312 204.8125 187.429688 205.242188 185.957031 C 205.671875 184.484375 207.859375 182.894531 207.953125 182.824219 C 208.070312 182.746094 208.167969 182.765625 208.25 182.878906 C 208.335938 182.996094 208.320312 183.09375 208.203125 183.175781 C 208.203125 183.175781 206.039062 184.742188 205.648438 186.074219 C 205.257812 187.40625 205.539062 191.023438 205.539062 191.0625 C 205.546875 191.121094 205.53125 191.175781 205.492188 191.21875 C 205.453125 191.265625 205.402344 191.289062 205.34375 191.289062 Z M 205.328125 191.289062 " fill-opacity="1" fill-rule="nonzero"/><path fill="#6570fd" d="M 195.09375 189.722656 C 193.398438 189.722656 191.804688 188.203125 191.742188 188.15625 C 191.636719 188.054688 191.636719 187.953125 191.742188 187.851562 C 191.84375 187.753906 191.945312 187.753906 192.046875 187.851562 C 192.046875 187.851562 193.609375 189.316406 195.101562 189.316406 C 195.242188 189.316406 195.316406 189.386719 195.320312 189.527344 C 195.304688 189.664062 195.230469 189.730469 195.09375 189.722656 Z M 195.09375 189.722656 " fill-opacity="1" fill-rule="nonzero"/><path fill="#6570fd" d="M 204.289062 224.394531 C 204.183594 224.398438 204.113281 224.351562 204.078125 224.25 C 204.042969 224.152344 204.070312 224.070312 204.15625 224.007812 C 206.226562 222.394531 205.625 215.191406 205.617188 215.121094 C 205.605469 214.980469 205.671875 214.902344 205.8125 214.886719 C 205.871094 214.878906 205.921875 214.894531 205.96875 214.933594 C 206.011719 214.972656 206.039062 215.023438 206.039062 215.082031 C 206.039062 215.386719 206.671875 222.589844 204.421875 224.347656 C 204.382812 224.378906 204.339844 224.394531 204.289062 224.394531 Z M 204.289062 224.394531 " fill-opacity="1" fill-rule="nonzero"/><path fill="#eb5f3a" d="M 159.65625 206.507812 C 159.277344 206.492188 158.953125 206.347656 158.6875 206.074219 C 158.566406 205.964844 158.492188 205.832031 158.460938 205.667969 C 158.433594 205.507812 158.457031 205.355469 158.53125 205.207031 C 158.605469 205.0625 158.71875 204.957031 158.867188 204.886719 C 159.015625 204.816406 159.167969 204.800781 159.328125 204.839844 C 159.46875 204.863281 159.53125 204.945312 159.507812 205.089844 C 159.488281 205.230469 159.40625 205.292969 159.265625 205.269531 C 159.183594 205.25 159.101562 205.261719 159.027344 205.304688 C 158.953125 205.347656 158.90625 205.414062 158.882812 205.496094 C 158.871094 205.613281 158.910156 205.707031 159 205.777344 C 159.195312 205.980469 159.4375 206.082031 159.71875 206.074219 C 159.855469 206.050781 159.9375 206.109375 159.960938 206.246094 C 159.976562 206.386719 159.917969 206.46875 159.78125 206.5 Z M 159.65625 206.507812 " fill-opacity="1" fill-rule="nonzero"/><path fill="#eb5f3a" d="M 161.203125 207.25 C 161.0625 207.234375 161 207.15625 161.015625 207.015625 C 161.035156 206.886719 161.105469 206.824219 161.234375 206.820312 C 161.234375 206.820312 161.429688 206.820312 161.617188 206.445312 C 161.679688 206.3125 161.777344 206.28125 161.90625 206.347656 C 162.027344 206.417969 162.054688 206.515625 161.992188 206.640625 C 161.664062 207.203125 161.304688 207.25 161.203125 207.25 Z M 161.203125 207.25 " fill-opacity="1" fill-rule="nonzero"/><path fill="#eb5f3a" d="M 163.523438 206.757812 L 163.460938 206.757812 C 163.394531 206.769531 163.332031 206.753906 163.28125 206.710938 C 163.226562 206.667969 163.199219 206.609375 163.199219 206.542969 C 163.199219 206.472656 163.226562 206.417969 163.28125 206.371094 C 163.332031 206.328125 163.394531 206.3125 163.460938 206.324219 L 163.507812 206.324219 C 164.246094 206.328125 164.976562 206.269531 165.703125 206.144531 C 165.847656 206.117188 165.929688 206.175781 165.953125 206.316406 C 165.976562 206.457031 165.917969 206.539062 165.78125 206.570312 C 165.035156 206.695312 164.28125 206.757812 163.523438 206.757812 Z M 163.523438 206.757812 " fill-opacity="1" fill-rule="nonzero"/><path fill="#eb5f3a" d="M 166.601562 201.574219 C 166.703125 201.574219 166.769531 201.621094 166.804688 201.714844 C 166.84375 201.847656 166.796875 201.941406 166.664062 201.988281 C 166.203125 202.144531 166.226562 202.488281 166.234375 202.527344 C 166.246094 202.667969 166.183594 202.746094 166.046875 202.769531 C 165.914062 202.777344 165.835938 202.71875 165.804688 202.589844 C 165.789062 202.355469 165.847656 202.144531 165.984375 201.953125 C 166.121094 201.761719 166.304688 201.636719 166.53125 201.582031 Z M 166.601562 201.574219 " fill-opacity="1" fill-rule="nonzero"/><path fill="#f8653e" d="M 166.851562 202.847656 C 166.804688 202.847656 166.765625 202.832031 166.726562 202.808594 C 166.609375 202.726562 166.59375 202.628906 166.679688 202.511719 L 166.796875 202.347656 C 166.882812 202.261719 166.976562 202.253906 167.078125 202.324219 C 167.179688 202.394531 167.203125 202.488281 167.148438 202.597656 L 167.023438 202.761719 C 166.980469 202.820312 166.921875 202.847656 166.851562 202.847656 Z M 166.851562 202.847656 " fill-opacity="1" fill-rule="nonzero"/><path fill="#eb5f3a" d="M 170.085938 259.671875 C 169.945312 259.664062 169.875 259.585938 169.875 259.445312 C 169.804688 258.910156 169.675781 258.386719 169.484375 257.878906 C 169.460938 257.824219 169.460938 257.769531 169.488281 257.714844 C 169.511719 257.660156 169.550781 257.625 169.609375 257.605469 C 169.746094 257.554688 169.835938 257.597656 169.882812 257.738281 C 170.09375 258.292969 170.234375 258.863281 170.304688 259.453125 C 170.304688 259.601562 170.230469 259.671875 170.085938 259.671875 Z M 170.085938 259.671875 " fill-opacity="1" fill-rule="nonzero"/><path fill="#eb5f3a" d="M 171.171875 256.964844 C 171.054688 256.964844 170.984375 256.90625 170.960938 256.792969 C 170.835938 256.148438 170.578125 255.566406 170.179688 255.042969 C 170.101562 254.949219 170.105469 254.851562 170.1875 254.761719 C 170.269531 254.667969 170.363281 254.65625 170.46875 254.722656 C 170.921875 255.3125 171.210938 255.972656 171.335938 256.703125 C 171.371094 256.847656 171.316406 256.933594 171.171875 256.964844 Z M 171.171875 256.964844 " fill-opacity="1" fill-rule="nonzero"/><path fill="#eb5f3a" d="M 168.351562 260.074219 C 168.246094 260.070312 168.179688 260.019531 168.15625 259.914062 C 168.097656 259.496094 168.0625 259.070312 168.046875 258.648438 C 168.042969 258.503906 168.109375 258.429688 168.25 258.421875 C 168.386719 258.417969 168.460938 258.488281 168.476562 258.625 C 168.476562 259.140625 168.546875 259.71875 168.5625 259.804688 C 168.597656 259.945312 168.546875 260.03125 168.40625 260.066406 Z M 168.351562 260.074219 " fill-opacity="1" fill-rule="nonzero"/><path fill="#eb5f3a" d="M 166.734375 259.5 C 166.613281 259.5 166.542969 259.4375 166.523438 259.320312 L 166.40625 258.492188 C 166.382812 258.347656 166.445312 258.265625 166.585938 258.246094 C 166.726562 258.226562 166.808594 258.285156 166.828125 258.429688 L 166.945312 259.257812 C 166.96875 259.398438 166.90625 259.480469 166.765625 259.5 Z M 166.734375 259.5 " fill-opacity="1" fill-rule="nonzero"/><path fill="#a9affc" d="M 226.148438 167.796875 C 226.113281 167.804688 226.082031 167.804688 226.046875 167.796875 C 225.550781 167.515625 225.113281 167.160156 224.734375 166.730469 C 224.476562 166.449219 224.195312 166.1875 223.898438 165.949219 C 223.644531 165.777344 223.386719 165.621094 223.117188 165.476562 C 222.464844 165.195312 221.945312 164.757812 221.554688 164.164062 C 221.519531 164.046875 221.558594 163.960938 221.664062 163.90625 C 221.773438 163.851562 221.863281 163.871094 221.9375 163.964844 C 222.285156 164.480469 222.738281 164.859375 223.304688 165.109375 C 223.574219 165.257812 223.835938 165.421875 224.085938 165.601562 C 224.402344 165.839844 224.695312 166.101562 224.96875 166.386719 C 225.316406 166.777344 225.71875 167.105469 226.171875 167.363281 C 226.296875 167.429688 226.328125 167.527344 226.265625 167.65625 C 226.25 167.722656 226.210938 167.769531 226.148438 167.796875 Z M 226.148438 167.796875 " fill-opacity="1" fill-rule="nonzero"/><path fill="#a9affc" d="M 225.265625 169.074219 C 225.203125 169.074219 225.152344 169.050781 225.109375 169.011719 C 223.894531 167.664062 222.476562 166.589844 220.851562 165.792969 C 220.722656 165.730469 220.691406 165.632812 220.753906 165.503906 C 220.816406 165.375 220.910156 165.34375 221.039062 165.40625 C 222.707031 166.230469 224.167969 167.332031 225.421875 168.710938 C 225.519531 168.8125 225.519531 168.914062 225.421875 169.019531 C 225.378906 169.058594 225.324219 169.078125 225.265625 169.074219 Z M 225.265625 169.074219 " fill-opacity="1" fill-rule="nonzero"/><path fill="#a9affc" d="M 221.710938 187.921875 C 221.621094 187.925781 221.554688 187.886719 221.515625 187.804688 C 220.613281 186.101562 219.9375 184.308594 219.492188 182.433594 C 219.46875 182.296875 219.523438 182.210938 219.65625 182.175781 C 219.796875 182.144531 219.882812 182.199219 219.914062 182.339844 C 220.351562 184.179688 221.011719 185.933594 221.898438 187.601562 C 221.96875 187.730469 221.9375 187.832031 221.804688 187.898438 Z M 221.710938 187.921875 " fill-opacity="1" fill-rule="nonzero"/><path fill="#a9affc" d="M 222.65625 187.257812 C 222.554688 187.253906 222.484375 187.207031 222.453125 187.109375 C 221.976562 185.71875 221.332031 184.414062 220.515625 183.191406 C 220.460938 183.078125 220.484375 182.984375 220.589844 182.914062 C 220.695312 182.84375 220.789062 182.855469 220.875 182.949219 C 221.710938 184.214844 222.371094 185.5625 222.859375 187 C 222.902344 187.132812 222.859375 187.222656 222.726562 187.273438 Z M 222.65625 187.257812 " fill-opacity="1" fill-rule="nonzero"/><path fill="#eb5f3a" d="M 176.164062 182.675781 L 176.125 182.675781 C 175.980469 182.652344 175.925781 182.566406 175.953125 182.425781 C 176.007812 182.136719 176.507812 179.621094 177.210938 179.050781 C 177.210938 179.050781 177.992188 178.585938 178.335938 178.34375 C 178.375 178.300781 178.425781 178.28125 178.484375 178.28125 C 178.542969 178.28125 178.59375 178.300781 178.632812 178.34375 C 178.730469 178.445312 178.730469 178.546875 178.632812 178.648438 C 178.296875 178.917969 177.515625 179.355469 177.484375 179.378906 C 177.015625 179.753906 176.546875 181.726562 176.40625 182.511719 C 176.375 182.636719 176.292969 182.695312 176.164062 182.675781 Z M 176.164062 182.675781 " fill-opacity="1" fill-rule="nonzero"/></svg>