<svg xmlns="http://www.w3.org/2000/svg" xmlns:xlink="http://www.w3.org/1999/xlink" width="500" zoomAndPan="magnify" viewBox="0 0 375 374.999991" height="500" preserveAspectRatio="xMidYMid meet" version="1.0"><path fill="#231f20" d="M 371.5 187.503906 C 371.5 289.125 289.121094 371.503906 187.5 371.503906 C 85.878906 371.503906 3.5 289.125 3.5 187.503906 C 3.5 85.882812 85.878906 3.503906 187.5 3.503906 C 289.121094 3.503906 371.5 85.882812 371.5 187.503906 Z M 371.5 187.503906 " fill-opacity="1" fill-rule="nonzero"/><path fill="#ffffff" d="M 187.5 375 C 162.191406 375 137.632812 370.042969 114.515625 360.265625 C 92.1875 350.820312 72.136719 337.304688 54.917969 320.085938 C 37.699219 302.867188 24.183594 282.816406 14.738281 260.488281 C 4.960938 237.371094 0.00390625 212.816406 0.00390625 187.503906 C 0.00390625 162.195312 4.960938 137.640625 14.738281 114.519531 C 24.183594 92.191406 37.699219 72.140625 54.917969 54.921875 C 72.136719 37.703125 92.1875 24.1875 114.515625 14.742188 C 137.632812 4.964844 162.191406 0.0078125 187.5 0.0078125 C 212.8125 0.0078125 237.367188 4.964844 260.484375 14.742188 C 282.8125 24.1875 302.863281 37.707031 320.082031 54.921875 C 337.300781 72.140625 350.816406 92.191406 360.261719 114.519531 C 370.039062 137.640625 374.996094 162.195312 374.996094 187.503906 C 374.996094 212.816406 370.039062 237.371094 360.261719 260.488281 C 350.816406 282.816406 337.300781 302.867188 320.082031 320.085938 C 302.863281 337.304688 282.8125 350.820312 260.484375 360.265625 C 237.367188 370.042969 212.8125 375 187.5 375 Z M 187.5 7 C 87.972656 7 6.996094 87.976562 6.996094 187.503906 C 6.996094 287.035156 87.972656 368.007812 187.5 368.007812 C 287.03125 368.007812 368 287.035156 368 187.503906 C 368 87.976562 287.03125 7 187.5 7 Z M 187.5 7 " fill-opacity="1" fill-rule="nonzero"/><path fill="#231f20" d="M 276.53125 195.492188 C 276.53125 245.855469 236.253906 286.6875 186.566406 286.6875 C 136.882812 286.6875 96.605469 245.855469 96.605469 195.492188 C 96.605469 145.128906 136.882812 104.296875 186.566406 104.296875 C 206.269531 104.296875 224.492188 110.71875 239.3125 121.609375 " fill-opacity="1" fill-rule="nonzero"/><path fill="#ffffff" d="M 186.566406 304.175781 C 172.039062 304.175781 157.941406 301.289062 144.660156 295.59375 C 131.855469 290.101562 120.363281 282.253906 110.503906 272.257812 C 100.664062 262.28125 92.933594 250.660156 87.535156 237.722656 C 81.949219 224.335938 79.117188 210.128906 79.117188 195.492188 C 79.117188 180.859375 81.949219 166.648438 87.535156 153.261719 C 92.933594 140.324219 100.664062 128.707031 110.503906 118.726562 C 120.363281 108.734375 131.855469 100.882812 144.660156 95.390625 C 157.941406 89.699219 172.039062 86.808594 186.566406 86.808594 C 209.414062 86.808594 231.234375 93.96875 249.667969 107.515625 L 228.957031 135.703125 C 216.570312 126.597656 201.910156 121.789062 186.566406 121.789062 C 146.605469 121.789062 114.09375 154.851562 114.09375 195.492188 C 114.09375 236.132812 146.605469 269.199219 186.566406 269.199219 C 226.53125 269.199219 259.042969 236.132812 259.042969 195.492188 L 294.019531 195.492188 C 294.019531 210.128906 291.1875 224.335938 285.601562 237.722656 C 280.203125 250.660156 272.472656 262.28125 262.632812 272.257812 C 252.773438 282.253906 241.28125 290.101562 228.476562 295.59375 C 215.195312 301.289062 201.097656 304.175781 186.566406 304.175781 Z M 186.566406 304.175781 " fill-opacity="1" fill-rule="nonzero"/><path fill="#ffffff" d="M 181.664062 177.246094 L 293.683594 177.246094 L 293.683594 212.222656 L 181.664062 212.222656 Z M 181.664062 177.246094 " fill-opacity="1" fill-rule="nonzero"/></svg>