<svg xmlns="http://www.w3.org/2000/svg" xmlns:xlink="http://www.w3.org/1999/xlink" width="500" zoomAndPan="magnify" viewBox="0 0 375 374.999991" height="500" preserveAspectRatio="xMidYMid meet" version="1.0"><defs><clipPath id="99fcf067e1"><path d="M 106.367188 0 L 374.835938 0 L 374.835938 275.863281 L 106.367188 275.863281 Z M 106.367188 0 " clip-rule="nonzero"/></clipPath><clipPath id="98a038a583"><path d="M 0.1875 98.386719 L 269 98.386719 L 269 374.25 L 0.1875 374.25 Z M 0.1875 98.386719 " clip-rule="nonzero"/></clipPath></defs><g clip-path="url(#99fcf067e1)"><path fill="#5271ff" d="M 354.601562 65.769531 C 354.558594 65.683594 354.5 65.601562 354.425781 65.539062 C 354.425781 65.503906 354.417969 65.472656 354.398438 65.449219 C 348.78125 56.296875 342.101562 47.84375 334.492188 40.265625 C 330.6875 36.46875 326.664062 32.894531 322.445312 29.566406 L 321.976562 29.15625 C 267.90625 -13.128906 189.242188 -9.429688 139.503906 40.265625 C 125.878906 53.84375 115.273438 70.144531 108.394531 88.101562 C 130.976562 83.597656 154.285156 84.292969 176.554688 90.136719 C 178.417969 87.738281 180.429688 85.457031 182.578125 83.304688 C 212.613281 53.273438 261.328125 53.253906 291.382812 83.269531 C 301.71875 93.585938 308.898438 106.632812 312.082031 120.875 C 312.082031 120.992188 312.113281 121.140625 312.113281 121.257812 C 317.769531 146.839844 309.964844 173.542969 291.417969 192.066406 C 285.792969 197.605469 279.378906 202.292969 272.386719 205.964844 C 253.050781 215.933594 230.398438 217.273438 210.023438 209.660156 C 200.722656 206.253906 192.195312 201.035156 184.933594 194.304688 L 184.703125 194.074219 C 183.945312 193.433594 183.277344 192.765625 182.578125 192.066406 C 181.878906 191.367188 181.207031 190.695312 180.570312 189.941406 L 180.335938 189.710938 C 159.984375 171.421875 130.179688 168.265625 106.445312 181.886719 C 118.453125 217.390625 144.433594 246.464844 178.386719 262.382812 C 183.058594 264.574219 187.847656 266.503906 192.734375 268.171875 C 218.144531 276.703125 245.484375 277.707031 271.453125 271.050781 C 276.601562 269.738281 281.664062 268.117188 286.617188 266.191406 C 288.390625 265.523438 290.167969 264.792969 291.914062 264.042969 L 291.945312 264.011719 C 291.988281 264.011719 292.03125 263.988281 292.0625 263.953125 L 292.085938 263.980469 C 292.152344 263.945312 292.207031 263.910156 292.265625 263.867188 C 292.34375 263.804688 292.429688 263.753906 292.523438 263.722656 C 308.195312 256.914062 322.433594 247.203125 334.492188 235.105469 C 379.488281 190.054688 387.796875 120.089844 354.601562 65.769531 " fill-opacity="1" fill-rule="nonzero"/></g><g clip-path="url(#98a038a583)"><path fill="#5271ff" d="M 198.4375 284.164062 C 196.574219 286.566406 194.558594 288.84375 192.414062 290.996094 C 162.359375 321.03125 113.628906 321.03125 83.570312 291 C 53.515625 260.964844 53.515625 212.269531 83.570312 182.238281 C 89.203125 176.679688 95.628906 171.984375 102.632812 168.308594 C 121.96875 158.363281 144.601562 157.03125 164.972656 164.640625 C 174.25 168.085938 182.773438 173.300781 190.058594 179.996094 C 190.144531 180.082031 190.230469 180.113281 190.292969 180.230469 C 191.046875 180.871094 191.714844 181.542969 192.414062 182.238281 C 193.113281 182.933594 193.78125 183.601562 194.421875 184.359375 C 194.539062 184.414062 194.566406 184.507812 194.65625 184.59375 C 215.015625 202.890625 244.839844 206.03125 268.574219 192.386719 C 254.8125 151.78125 222.898438 119.914062 182.253906 106.191406 C 180.046875 105.433594 177.777344 104.738281 175.507812 104.097656 L 172.566406 103.3125 C 171.285156 102.964844 169.949219 102.671875 168.636719 102.351562 C 147.171875 97.488281 124.855469 97.796875 103.535156 103.253906 C 101.324219 103.835938 99.140625 104.445312 96.960938 105.113281 C 96.933594 105.132812 96.902344 105.144531 96.871094 105.144531 C 96.84375 105.171875 96.78125 105.171875 96.695312 105.203125 C 96.605469 105.238281 96.503906 105.257812 96.40625 105.261719 C 93.699219 106.160156 91.019531 107.09375 88.375 108.109375 C 70.390625 114.972656 54.078125 125.566406 40.5 139.199219 C -13.253906 192.910156 -13.253906 280.324219 40.5 334.035156 C 52.320312 345.886719 66.21875 355.457031 81.503906 362.273438 C 81.585938 362.300781 81.667969 362.339844 81.738281 362.390625 L 81.769531 362.417969 C 81.855469 362.449219 81.910156 362.503906 81.972656 362.503906 C 106.722656 373.417969 134.132812 376.847656 160.808594 372.363281 C 160.632812 372.429688 160.445312 372.480469 160.253906 372.507812 C 161.621094 372.304688 162.992188 372.101562 164.359375 371.839844 C 210.925781 362.796875 249.554688 330.4375 266.59375 286.199219 C 244.015625 290.691406 220.707031 289.992188 198.4375 284.164062 " fill-opacity="1" fill-rule="nonzero"/></g></svg>