<svg fill="current" stroke="current" xmlns="http://www.w3.org/2000/svg" xmlns:xlink="http://www.w3.org/1999/xlink" width="500" zoomAndPan="magnify" viewBox="0 0 375 374.999991" height="500" preserveAspectRatio="xMidYMid meet" version="1.0"><path fill="#000000" d="M 197.03125 85.40625 C 198.066406 84.730469 199.121094 84.078125 200.191406 83.449219 C 201.261719 82.824219 202.34375 82.222656 203.445312 81.652344 C 204.542969 81.078125 205.65625 80.53125 206.78125 80.011719 C 207.90625 79.492188 209.042969 79 210.195312 78.539062 C 211.34375 78.074219 212.503906 77.640625 213.675781 77.230469 C 214.84375 76.824219 216.027344 76.445312 217.214844 76.097656 C 218.402344 75.746094 219.601562 75.425781 220.804688 75.136719 C 222.011719 74.84375 223.222656 74.582031 224.4375 74.351562 C 225.65625 74.117188 226.878906 73.914062 228.105469 73.742188 C 229.332031 73.570312 230.566406 73.425781 231.800781 73.316406 C 233.03125 73.203125 234.269531 73.121094 235.507812 73.066406 C 236.746094 73.015625 237.984375 72.992188 239.222656 73 C 240.464844 73.007812 241.703125 73.046875 242.941406 73.117188 C 244.175781 73.183594 245.414062 73.28125 246.644531 73.410156 C 247.878906 73.539062 249.105469 73.699219 250.332031 73.886719 C 251.558594 74.074219 252.777344 74.292969 253.992188 74.542969 C 255.207031 74.789062 256.414062 75.066406 257.613281 75.375 C 258.816406 75.683594 260.007812 76.019531 261.191406 76.382812 C 262.375 76.75 263.550781 77.140625 264.714844 77.5625 C 265.882812 77.988281 267.035156 78.4375 268.179688 78.914062 C 269.324219 79.394531 270.453125 79.902344 271.574219 80.433594 C 272.691406 80.96875 273.796875 81.527344 274.886719 82.117188 C 275.980469 82.703125 277.054688 83.320312 278.117188 83.957031 C 279.179688 84.597656 280.226562 85.265625 281.253906 85.957031 C 282.285156 86.648438 283.296875 87.363281 284.289062 88.101562 C 285.285156 88.84375 286.257812 89.609375 287.21875 90.394531 C 288.175781 91.183594 289.113281 91.996094 290.027344 92.828125 C 290.945312 93.664062 291.84375 94.519531 292.71875 95.394531 C 293.59375 96.273438 294.449219 97.171875 295.28125 98.089844 C 296.113281 99.007812 296.925781 99.949219 297.710938 100.90625 C 298.496094 101.867188 299.261719 102.84375 300 103.839844 C 300.738281 104.835938 301.453125 105.847656 302.140625 106.878906 C 302.832031 107.910156 303.496094 108.957031 304.132812 110.019531 C 304.773438 111.082031 305.386719 112.160156 305.972656 113.253906 C 306.558594 114.34375 307.117188 115.453125 307.648438 116.570312 C 308.183594 117.691406 308.6875 118.824219 309.164062 119.96875 C 309.640625 121.113281 310.089844 122.269531 310.511719 123.4375 C 310.933594 124.601562 311.324219 125.777344 311.691406 126.964844 C 312.054688 128.152344 312.386719 129.34375 312.695312 130.546875 C 313 131.75 313.277344 132.957031 313.523438 134.171875 C 313.769531 135.390625 313.988281 136.609375 314.171875 137.835938 C 314.359375 139.0625 314.519531 140.292969 314.644531 141.527344 C 314.773438 142.761719 314.871094 143.996094 314.9375 145.234375 C 315.003906 146.472656 315.042969 147.710938 315.050781 148.953125 C 315.058594 150.195312 315.035156 151.433594 314.980469 152.671875 C 314.925781 153.910156 314.84375 155.148438 314.730469 156.382812 C 314.617188 157.621094 314.472656 158.851562 314.300781 160.078125 C 314.125 161.308594 313.921875 162.53125 313.691406 163.75 C 313.457031 164.96875 313.195312 166.179688 312.902344 167.382812 C 312.609375 168.589844 312.289062 169.789062 311.9375 170.976562 C 311.585938 172.167969 311.207031 173.347656 310.800781 174.519531 C 310.394531 175.691406 309.957031 176.851562 309.492188 178 C 309.027344 179.152344 308.535156 180.289062 308.015625 181.414062 C 307.496094 182.542969 306.949219 183.65625 306.375 184.753906 C 305.800781 185.855469 305.203125 186.9375 304.574219 188.007812 C 303.949219 189.078125 303.296875 190.132812 302.617188 191.171875 C 301.941406 192.210938 301.238281 193.230469 300.507812 194.234375 C 299.78125 195.238281 299.03125 196.226562 298.253906 197.191406 C 297.480469 198.160156 296.679688 199.109375 295.859375 200.035156 C 295.035156 200.964844 294.191406 201.871094 293.324219 202.761719 C 292.460938 203.648438 291.574219 204.511719 290.664062 205.355469 C 289.757812 206.199219 288.828125 207.023438 287.878906 207.820312 C 286.933594 208.621094 285.964844 209.394531 284.980469 210.148438 C 283.992188 210.898438 282.988281 211.625 281.96875 212.328125 L 281.714844 212.492188 L 281.613281 212.554688 C 278.457031 214.710938 275.15625 216.621094 271.714844 218.285156 C 268.269531 219.949219 264.722656 221.351562 261.070312 222.484375 C 257.421875 223.617188 253.703125 224.472656 249.925781 225.054688 C 246.144531 225.632812 242.34375 225.925781 238.519531 225.9375 C 235.722656 225.933594 232.9375 225.777344 230.15625 225.46875 C 227.378906 225.160156 224.625 224.699219 221.894531 224.09375 C 219.164062 223.484375 216.476562 222.726562 213.832031 221.828125 C 211.183594 220.925781 208.59375 219.882812 206.058594 218.699219 C 203.527344 217.515625 201.0625 216.199219 198.671875 214.746094 C 196.28125 213.292969 193.980469 211.714844 191.761719 210.011719 C 189.542969 208.308594 187.421875 206.492188 185.402344 204.558594 C 183.378906 202.625 181.46875 200.585938 179.671875 198.441406 L 175.378906 192.738281 C 172.972656 189.9375 170.292969 187.421875 167.34375 185.199219 C 164.390625 182.972656 161.238281 181.09375 157.882812 179.550781 C 154.523438 178.007812 151.042969 176.84375 147.433594 176.054688 C 143.824219 175.265625 140.171875 174.875 136.480469 174.875 C 133.328125 174.867188 130.210938 175.164062 127.117188 175.769531 C 122.90625 176.59375 118.867188 177.933594 115 179.792969 C 115.453125 181.671875 115.949219 183.539062 116.488281 185.394531 C 117.027344 187.25 117.609375 189.09375 118.230469 190.925781 C 118.855469 192.753906 119.519531 194.570312 120.222656 196.367188 C 120.929688 198.167969 121.675781 199.949219 122.460938 201.714844 C 123.25 203.480469 124.074219 205.226562 124.941406 206.953125 C 125.808594 208.683594 126.714844 210.390625 127.660156 212.074219 C 128.605469 213.761719 129.585938 215.425781 130.605469 217.066406 C 131.628906 218.707031 132.683594 220.324219 133.78125 221.917969 C 134.875 223.507812 136.003906 225.078125 137.171875 226.617188 C 138.335938 228.160156 139.535156 229.671875 140.773438 231.160156 C 142.007812 232.644531 143.273438 234.101562 144.578125 235.53125 C 145.878906 236.957031 147.210938 238.355469 148.578125 239.722656 C 149.941406 241.089844 151.339844 242.425781 152.765625 243.730469 C 154.191406 245.03125 155.648438 246.300781 157.132812 247.539062 C 158.617188 248.777344 160.128906 249.976562 161.667969 251.144531 C 163.207031 252.3125 164.769531 253.445312 166.363281 254.539062 C 167.953125 255.636719 169.566406 256.695312 171.207031 257.71875 C 172.847656 258.742188 174.507812 259.722656 176.191406 260.671875 C 177.878906 261.617188 179.582031 262.523438 181.308594 263.390625 C 183.035156 264.261719 184.777344 265.089844 186.542969 265.878906 C 188.304688 266.664062 190.085938 267.414062 191.882812 268.121094 C 193.679688 268.828125 195.492188 269.492188 197.320312 270.117188 C 199.148438 270.742188 200.992188 271.324219 202.847656 271.863281 C 204.699219 272.402344 206.566406 272.898438 208.445312 273.355469 C 210.320312 273.808594 212.207031 274.21875 214.105469 274.589844 C 216 274.957031 217.902344 275.28125 219.8125 275.5625 C 221.726562 275.84375 223.640625 276.082031 225.5625 276.273438 C 227.484375 276.46875 229.410156 276.617188 231.339844 276.722656 C 233.265625 276.828125 235.199219 276.890625 237.128906 276.90625 C 239.058594 276.925781 240.992188 276.898438 242.921875 276.824219 C 244.851562 276.753906 246.777344 276.640625 248.703125 276.480469 C 250.628906 276.320312 252.546875 276.117188 254.464844 275.871094 C 257.769531 275.457031 261.023438 274.90625 264.242188 274.25 C 264.894531 274.113281 265.546875 273.992188 266.199219 273.847656 C 269.433594 273.132812 272.613281 272.289062 275.746094 271.335938 C 276.183594 271.207031 276.625 271.097656 277.0625 270.957031 C 284.179688 268.707031 291.046875 265.847656 297.660156 262.382812 C 298.230469 262.085938 298.78125 261.746094 299.347656 261.441406 C 301.992188 260.003906 304.589844 258.492188 307.117188 256.878906 C 307.835938 256.417969 308.539062 255.929688 309.253906 255.453125 C 311.613281 253.878906 313.914062 252.234375 316.164062 250.515625 C 316.847656 249.992188 317.527344 249.457031 318.203125 248.914062 C 320.460938 247.105469 322.652344 245.222656 324.78125 243.269531 C 325.335938 242.757812 325.898438 242.253906 326.445312 241.738281 C 328.042969 240.222656 329.601562 238.671875 331.117188 237.078125 C 332.636719 235.484375 334.109375 233.855469 335.542969 232.183594 C 336.976562 230.515625 338.363281 228.808594 339.707031 227.066406 C 341.050781 225.324219 342.351562 223.550781 343.601562 221.742188 C 344.855469 219.933594 346.058594 218.09375 347.21875 216.222656 C 348.375 214.351562 349.480469 212.449219 350.542969 210.523438 C 351.601562 208.59375 352.609375 206.636719 353.566406 204.65625 C 354.523438 202.675781 355.429688 200.671875 356.285156 198.644531 C 357.136719 196.617188 357.9375 194.566406 358.6875 192.5 C 359.433594 190.429688 360.128906 188.339844 360.769531 186.234375 C 361.40625 184.128906 361.992188 182.007812 362.523438 179.875 C 363.054688 177.738281 363.527344 175.589844 363.945312 173.429688 C 364.367188 171.269531 364.730469 169.101562 365.035156 166.921875 C 365.34375 164.742188 365.59375 162.554688 365.785156 160.363281 C 365.980469 158.171875 366.117188 155.976562 366.195312 153.777344 C 366.277344 151.578125 366.300781 149.378906 366.265625 147.175781 C 366.230469 144.976562 366.140625 142.777344 365.992188 140.582031 C 365.84375 138.386719 365.640625 136.195312 365.378906 134.011719 C 365.117188 131.828125 364.800781 129.648438 364.425781 127.480469 C 364.054688 125.3125 363.625 123.15625 363.140625 121.007812 C 362.652344 118.863281 362.113281 116.730469 361.515625 114.613281 C 360.921875 112.492188 360.273438 110.390625 359.566406 108.308594 C 358.863281 106.222656 358.105469 104.15625 357.292969 102.113281 C 356.480469 100.066406 355.617188 98.042969 354.703125 96.042969 C 353.785156 94.042969 352.820312 92.066406 351.800781 90.117188 C 350.78125 88.164062 349.714844 86.242188 348.597656 84.347656 C 347.480469 82.453125 346.3125 80.589844 345.097656 78.753906 C 343.882812 76.917969 342.625 75.117188 341.316406 73.347656 C 340.007812 71.578125 338.65625 69.84375 337.257812 68.144531 C 335.859375 66.445312 334.421875 64.785156 332.9375 63.160156 C 331.453125 61.535156 329.929688 59.949219 328.363281 58.402344 C 326.796875 56.859375 325.195312 55.355469 323.550781 53.890625 C 321.90625 52.429688 320.226562 51.011719 318.511719 49.636719 C 316.792969 48.261719 315.042969 46.929688 313.257812 45.644531 C 311.472656 44.363281 309.65625 43.125 307.804688 41.933594 C 305.957031 40.742188 304.078125 39.601562 302.167969 38.507812 C 300.261719 37.417969 298.324219 36.375 296.363281 35.382812 C 294.398438 34.386719 292.414062 33.449219 290.402344 32.558594 C 288.390625 31.667969 286.355469 30.832031 284.300781 30.046875 C 282.246094 29.261719 280.175781 28.53125 278.082031 27.855469 C 275.988281 27.179688 273.882812 26.558594 271.757812 25.988281 C 269.632812 25.421875 267.496094 24.910156 265.34375 24.453125 C 263.191406 23.996094 261.03125 23.597656 258.859375 23.253906 C 256.6875 22.90625 254.507812 22.621094 252.320312 22.386719 C 250.132812 22.15625 247.945312 21.980469 245.746094 21.863281 C 243.550781 21.746094 241.355469 21.683594 239.15625 21.679688 C 236.957031 21.675781 234.757812 21.730469 232.5625 21.839844 C 230.367188 21.949219 228.175781 22.117188 225.988281 22.339844 C 223.800781 22.5625 221.621094 22.84375 219.445312 23.179688 C 217.273438 23.515625 215.109375 23.910156 212.957031 24.355469 C 210.804688 24.804688 208.664062 25.308594 206.539062 25.871094 C 204.414062 26.429688 202.300781 27.042969 200.207031 27.710938 C 198.113281 28.382812 196.035156 29.105469 193.980469 29.878906 C 191.921875 30.65625 189.886719 31.488281 187.871094 32.367188 C 185.855469 33.25 183.867188 34.183594 181.898438 35.167969 C 179.933594 36.15625 177.992188 37.191406 176.082031 38.277344 C 174.167969 39.363281 172.285156 40.496094 170.429688 41.679688 C 168.578125 42.863281 166.753906 44.09375 164.964844 45.371094 C 163.175781 46.648438 161.417969 47.972656 159.699219 49.34375 C 157.976562 50.710938 156.289062 52.125 154.640625 53.578125 C 152.992188 55.035156 151.382812 56.535156 149.8125 58.074219 C 148.242188 59.613281 146.710938 61.191406 145.222656 62.8125 C 143.734375 64.429688 142.285156 66.085938 140.882812 67.78125 C 139.480469 69.476562 138.121094 71.203125 136.804688 72.96875 C 147.160156 72.980469 157.410156 74.03125 167.550781 76.125 C 177.691406 78.21875 187.515625 81.3125 197.03125 85.40625 Z M 197.03125 85.40625 " fill-opacity="1" fill-rule="nonzero"/><path fill="#000000" d="M 178.105469 289.78125 C 175.039062 291.828125 171.839844 293.640625 168.507812 295.21875 C 165.179688 296.800781 161.75 298.128906 158.226562 299.207031 C 154.703125 300.289062 151.117188 301.105469 147.472656 301.660156 C 143.832031 302.21875 140.164062 302.507812 136.480469 302.527344 C 134.457031 302.53125 132.433594 302.449219 130.417969 302.292969 C 128.398438 302.132812 126.390625 301.894531 124.394531 301.574219 C 122.394531 301.253906 120.414062 300.859375 118.445312 300.382812 C 116.476562 299.90625 114.53125 299.351562 112.609375 298.722656 C 110.6875 298.089844 108.792969 297.382812 106.925781 296.601562 C 105.058594 295.820312 103.222656 294.964844 101.425781 294.039062 C 99.625 293.113281 97.867188 292.117188 96.144531 291.046875 C 94.425781 289.980469 92.75 288.847656 91.121094 287.648438 C 89.488281 286.449219 87.910156 285.1875 86.378906 283.859375 C 84.847656 282.535156 83.375 281.152344 81.953125 279.707031 C 80.53125 278.265625 79.171875 276.769531 77.871094 275.21875 C 76.566406 273.667969 75.328125 272.066406 74.15625 270.417969 C 72.980469 268.769531 71.871094 267.074219 70.832031 265.335938 C 69.792969 263.601562 68.820312 261.824219 67.921875 260.011719 C 67.023438 258.195312 66.195312 256.347656 65.441406 254.46875 C 64.6875 252.589844 64.011719 250.683594 63.410156 248.75 C 62.808594 246.816406 62.285156 244.859375 61.835938 242.882812 C 61.390625 240.910156 61.023438 238.917969 60.734375 236.914062 C 60.445312 234.910156 60.234375 232.898438 60.105469 230.875 C 59.976562 228.855469 59.925781 226.832031 59.957031 224.804688 C 59.988281 222.78125 60.101562 220.761719 60.292969 218.742188 C 60.484375 216.726562 60.753906 214.722656 61.105469 212.726562 C 61.453125 210.730469 61.882812 208.753906 62.390625 206.792969 C 62.898438 204.832031 63.480469 202.894531 64.144531 200.980469 C 64.804688 199.066406 65.539062 197.179688 66.351562 195.324219 C 67.160156 193.46875 68.042969 191.648438 69 189.863281 C 69.953125 188.078125 70.976562 186.332031 72.070312 184.628906 C 73.164062 182.921875 74.324219 181.265625 75.546875 179.652344 C 76.773438 178.039062 78.058594 176.480469 79.40625 174.96875 C 80.757812 173.457031 82.164062 172.003906 83.628906 170.605469 C 85.089844 169.207031 86.609375 167.871094 88.179688 166.59375 C 89.75 165.3125 91.367188 164.101562 93.03125 162.949219 L 93.289062 162.789062 L 93.386719 162.726562 C 96.542969 160.570312 99.84375 158.660156 103.289062 156.996094 C 106.730469 155.328125 110.277344 153.929688 113.929688 152.796875 C 117.582031 151.664062 121.296875 150.808594 125.074219 150.226562 C 128.855469 149.648438 132.65625 149.355469 136.480469 149.34375 C 139.277344 149.347656 142.0625 149.503906 144.84375 149.8125 C 147.621094 150.121094 150.375 150.582031 153.105469 151.1875 C 155.835938 151.796875 158.523438 152.554688 161.167969 153.453125 C 163.816406 154.355469 166.40625 155.398438 168.941406 156.582031 C 171.472656 157.765625 173.9375 159.082031 176.328125 160.535156 C 178.71875 161.988281 181.019531 163.566406 183.238281 165.269531 C 185.457031 166.972656 187.578125 168.789062 189.597656 170.722656 C 191.621094 172.65625 193.53125 174.695312 195.328125 176.839844 L 199.621094 182.542969 C 202.027344 185.34375 204.707031 187.859375 207.65625 190.082031 C 210.609375 192.308594 213.761719 194.1875 217.117188 195.730469 C 220.476562 197.273438 223.957031 198.4375 227.566406 199.226562 C 231.175781 200.015625 234.828125 200.40625 238.519531 200.40625 C 241.667969 200.414062 244.789062 200.117188 247.882812 199.511719 C 252.09375 198.6875 256.132812 197.347656 260 195.488281 C 259.546875 193.609375 259.050781 191.742188 258.511719 189.886719 C 257.972656 188.03125 257.390625 186.1875 256.769531 184.355469 C 256.144531 182.527344 255.480469 180.710938 254.777344 178.914062 C 254.070312 177.113281 253.324219 175.332031 252.539062 173.566406 C 251.75 171.800781 250.925781 170.054688 250.058594 168.328125 C 249.191406 166.597656 248.285156 164.890625 247.339844 163.207031 C 246.394531 161.519531 245.414062 159.855469 244.394531 158.214844 C 243.371094 156.574219 242.316406 154.957031 241.21875 153.363281 C 240.125 151.773438 238.996094 150.203125 237.828125 148.664062 C 236.664062 147.121094 235.464844 145.609375 234.226562 144.121094 C 232.992188 142.636719 231.726562 141.179688 230.421875 139.75 C 229.121094 138.324219 227.789062 136.925781 226.421875 135.558594 C 225.058594 134.191406 223.660156 132.855469 222.234375 131.550781 C 220.808594 130.25 219.351562 128.980469 217.867188 127.742188 C 216.382812 126.503906 214.871094 125.304688 213.332031 124.136719 C 211.792969 122.96875 210.230469 121.835938 208.636719 120.742188 C 207.046875 119.644531 205.433594 118.585938 203.792969 117.5625 C 202.152344 116.539062 200.492188 115.558594 198.808594 114.609375 C 197.121094 113.664062 195.417969 112.757812 193.691406 111.890625 C 191.964844 111.019531 190.222656 110.191406 188.457031 109.402344 C 186.695312 108.617188 184.914062 107.867188 183.117188 107.160156 C 181.320312 106.453125 179.507812 105.789062 177.679688 105.164062 C 175.851562 104.539062 174.007812 103.957031 172.152344 103.417969 C 170.300781 102.878906 168.433594 102.382812 166.554688 101.925781 C 164.679688 101.472656 162.792969 101.0625 160.894531 100.691406 C 159 100.324219 157.097656 100 155.1875 99.71875 C 153.273438 99.4375 151.359375 99.199219 149.4375 99.007812 C 147.515625 98.8125 145.589844 98.664062 143.660156 98.558594 C 141.734375 98.453125 139.800781 98.390625 137.871094 98.375 C 135.941406 98.355469 134.007812 98.382812 132.078125 98.457031 C 130.148438 98.527344 128.222656 98.640625 126.296875 98.800781 C 124.371094 98.960938 122.453125 99.164062 120.535156 99.410156 C 117.230469 99.824219 113.976562 100.375 110.757812 101.03125 C 110.105469 101.167969 109.453125 101.289062 108.800781 101.433594 C 105.566406 102.148438 102.386719 102.992188 99.253906 103.945312 C 98.816406 104.074219 98.375 104.183594 97.9375 104.324219 C 90.820312 106.574219 83.953125 109.433594 77.339844 112.898438 C 76.769531 113.195312 76.21875 113.535156 75.652344 113.839844 C 73.007812 115.277344 70.410156 116.789062 67.882812 118.402344 C 67.164062 118.863281 66.460938 119.351562 65.746094 119.828125 C 63.390625 121.398438 61.085938 123.042969 58.839844 124.761719 C 58.152344 125.289062 57.472656 125.824219 56.796875 126.371094 C 54.546875 128.175781 52.355469 130.054688 50.230469 132.007812 C 49.671875 132.519531 49.109375 133.027344 48.558594 133.550781 C 46.960938 135.0625 45.40625 136.613281 43.886719 138.207031 C 42.371094 139.796875 40.898438 141.429688 39.464844 143.097656 C 38.03125 144.765625 36.640625 146.46875 35.296875 148.210938 C 33.953125 149.949219 32.65625 151.726562 31.402344 153.53125 C 30.148438 155.339844 28.945312 157.179688 27.785156 159.050781 C 26.628906 160.921875 25.519531 162.820312 24.460938 164.746094 C 23.402344 166.675781 22.394531 168.628906 21.433594 170.609375 C 20.476562 172.589844 19.570312 174.59375 18.714844 176.617188 C 17.863281 178.644531 17.058594 180.695312 16.3125 182.761719 C 15.5625 184.832031 14.867188 186.917969 14.226562 189.023438 C 13.585938 191.125 13 193.246094 12.46875 195.382812 C 11.9375 197.515625 11.464844 199.664062 11.042969 201.824219 C 10.625 203.980469 10.261719 206.152344 9.953125 208.328125 C 9.644531 210.507812 9.394531 212.691406 9.199219 214.882812 C 9.003906 217.074219 8.867188 219.269531 8.785156 221.46875 C 8.703125 223.667969 8.679688 225.867188 8.714844 228.066406 C 8.746094 230.265625 8.835938 232.464844 8.980469 234.660156 C 9.128906 236.855469 9.332031 239.042969 9.589844 241.226562 C 9.851562 243.414062 10.167969 245.589844 10.539062 247.757812 C 10.910156 249.925781 11.339844 252.082031 11.824219 254.230469 C 12.308594 256.375 12.847656 258.507812 13.441406 260.625 C 14.035156 262.742188 14.683594 264.84375 15.386719 266.929688 C 16.089844 269.015625 16.84375 271.078125 17.65625 273.125 C 18.464844 275.167969 19.328125 277.191406 20.242188 279.191406 C 21.15625 281.195312 22.121094 283.167969 23.136719 285.121094 C 24.15625 287.070312 25.222656 288.992188 26.335938 290.886719 C 27.453125 292.785156 28.617188 294.648438 29.832031 296.484375 C 31.042969 298.320312 32.300781 300.121094 33.609375 301.890625 C 34.914062 303.660156 36.265625 305.394531 37.660156 307.09375 C 39.054688 308.796875 40.496094 310.457031 41.976562 312.082031 C 43.457031 313.707031 44.980469 315.292969 46.546875 316.839844 C 48.109375 318.386719 49.710938 319.890625 51.351562 321.355469 C 52.996094 322.816406 54.671875 324.238281 56.386719 325.613281 C 58.101562 326.988281 59.851562 328.320312 61.636719 329.605469 C 63.421875 330.890625 65.234375 332.128906 67.082031 333.320312 C 68.933594 334.511719 70.808594 335.65625 72.714844 336.75 C 74.625 337.84375 76.558594 338.886719 78.519531 339.882812 C 80.480469 340.875 82.464844 341.820312 84.476562 342.710938 C 86.484375 343.601562 88.515625 344.4375 90.570312 345.226562 C 92.625 346.011719 94.695312 346.742188 96.785156 347.421875 C 98.878906 348.101562 100.984375 348.722656 103.109375 349.292969 C 105.230469 349.863281 107.367188 350.375 109.519531 350.835938 C 111.667969 351.292969 113.828125 351.695312 116 352.042969 C 118.171875 352.386719 120.347656 352.679688 122.535156 352.914062 C 124.71875 353.144531 126.910156 353.324219 129.105469 353.441406 C 131.300781 353.5625 133.496094 353.625 135.695312 353.632812 C 137.894531 353.640625 140.089844 353.589844 142.285156 353.480469 C 144.480469 353.371094 146.671875 353.207031 148.859375 352.988281 C 151.046875 352.765625 153.226562 352.488281 155.398438 352.15625 C 157.574219 351.820312 159.734375 351.429688 161.886719 350.984375 C 164.039062 350.539062 166.179688 350.035156 168.308594 349.480469 C 170.433594 348.921875 172.542969 348.3125 174.640625 347.644531 C 176.734375 346.976562 178.8125 346.257812 180.867188 345.484375 C 182.925781 344.710938 184.960938 343.882812 186.976562 343.003906 C 188.992188 342.125 190.984375 341.191406 192.949219 340.210938 C 194.917969 339.226562 196.855469 338.195312 198.769531 337.109375 C 200.683594 336.027344 202.566406 334.894531 204.421875 333.714844 C 206.277344 332.535156 208.101562 331.304688 209.890625 330.03125 C 211.683594 328.753906 213.4375 327.433594 215.160156 326.066406 C 216.886719 324.703125 218.570312 323.292969 220.222656 321.835938 C 221.871094 320.382812 223.480469 318.886719 225.054688 317.351562 C 226.628906 315.8125 228.160156 314.238281 229.648438 312.621094 C 231.140625 311.003906 232.589844 309.347656 233.996094 307.65625 C 235.398438 305.964844 236.761719 304.238281 238.078125 302.476562 C 227.753906 302.410156 217.546875 301.308594 207.449219 299.171875 C 197.351562 297.035156 187.570312 293.90625 178.105469 289.78125 Z M 178.105469 289.78125 " fill-opacity="1" fill-rule="nonzero"/></svg>