<svg xmlns="http://www.w3.org/2000/svg" xmlns:xlink="http://www.w3.org/1999/xlink" width="500" zoomAndPan="magnify" viewBox="0 0 375 374.999991" height="500" preserveAspectRatio="xMidYMid meet" version="1.0"><defs><clipPath id="0c41af5019"><path d="M 65.625 86 L 309.375 86 L 309.375 234 L 65.625 234 Z M 65.625 86 " clip-rule="nonzero"/></clipPath><clipPath id="25f876632e"><path d="M 65.625 78 L 309.375 78 L 309.375 87 L 65.625 87 Z M 65.625 78 " clip-rule="nonzero"/></clipPath></defs><path fill="#f5f8fd" d="M 294.46875 288.449219 C 292.125 270.800781 282.632812 254.046875 278.042969 236.707031 C 271.503906 211.992188 277.542969 187.300781 283.15625 164.816406 C 288.851562 142.003906 296.960938 118.039062 293.992188 92.960938 C 290.792969 65.921875 269.027344 47.265625 245.03125 37.449219 C 153.738281 0.105469 100.550781 121.128906 84.480469 192.425781 C 78.453125 219.148438 73.421875 249.976562 85.476562 277.523438 C 99.683594 309.984375 133.570312 330.636719 163.714844 341.890625 C 168.765625 343.777344 173.839844 345.445312 178.894531 346.910156 C 211.109375 356.253906 249.175781 362.207031 274.929688 338.226562 C 287.738281 326.304688 297.09375 308.175781 294.46875 288.449219 Z M 294.46875 288.449219 " fill-opacity="1" fill-rule="nonzero"/><g clip-path="url(#0c41af5019)"><path fill="#e9f0fb" d="M 309.425781 86.203125 L 65.652344 86.203125 L 65.652344 229.804688 C 65.652344 230.3125 65.746094 230.800781 65.941406 231.269531 C 66.136719 231.738281 66.414062 232.152344 66.773438 232.511719 C 67.128906 232.867188 67.542969 233.144531 68.011719 233.339844 C 68.480469 233.535156 68.96875 233.632812 69.476562 233.632812 L 305.59375 233.632812 C 306.101562 233.632812 306.589844 233.535156 307.058594 233.339844 C 307.527344 233.144531 307.941406 232.867188 308.300781 232.511719 C 308.660156 232.152344 308.9375 231.738281 309.128906 231.269531 C 309.324219 230.800781 309.421875 230.3125 309.421875 229.804688 L 309.421875 86.203125 " fill-opacity="1" fill-rule="nonzero"/></g><g clip-path="url(#25f876632e)"><path fill="#bfcde6" d="M 305.59375 78.058594 L 69.480469 78.058594 C 68.972656 78.058594 68.484375 78.15625 68.015625 78.351562 C 67.546875 78.542969 67.132812 78.820312 66.773438 79.179688 C 66.414062 79.539062 66.136719 79.953125 65.941406 80.421875 C 65.75 80.890625 65.652344 81.378906 65.652344 81.886719 L 65.652344 86.203125 L 309.425781 86.203125 L 309.425781 81.886719 C 309.425781 81.378906 309.328125 80.890625 309.132812 80.421875 C 308.9375 79.953125 308.660156 79.539062 308.304688 79.179688 C 307.945312 78.820312 307.53125 78.542969 307.058594 78.347656 C 306.589844 78.15625 306.101562 78.058594 305.59375 78.058594 Z M 305.59375 78.058594 " fill-opacity="1" fill-rule="nonzero"/></g><path fill="#b0c0d8" d="M 72.46875 82.46875 C 72.46875 82.640625 72.4375 82.808594 72.371094 82.96875 C 72.304688 83.132812 72.207031 83.273438 72.085938 83.394531 C 71.960938 83.519531 71.820312 83.613281 71.660156 83.679688 C 71.5 83.746094 71.332031 83.78125 71.15625 83.78125 C 70.984375 83.78125 70.816406 83.746094 70.65625 83.679688 C 70.496094 83.613281 70.351562 83.519531 70.230469 83.394531 C 70.105469 83.273438 70.011719 83.132812 69.945312 82.96875 C 69.878906 82.808594 69.847656 82.640625 69.847656 82.46875 C 69.847656 82.292969 69.878906 82.128906 69.945312 81.964844 C 70.011719 81.804688 70.105469 81.664062 70.230469 81.539062 C 70.351562 81.417969 70.496094 81.324219 70.65625 81.257812 C 70.816406 81.191406 70.984375 81.15625 71.15625 81.15625 C 71.332031 81.15625 71.5 81.191406 71.660156 81.257812 C 71.820312 81.324219 71.960938 81.417969 72.085938 81.539062 C 72.207031 81.664062 72.304688 81.804688 72.371094 81.964844 C 72.4375 82.128906 72.46875 82.292969 72.46875 82.46875 Z M 72.46875 82.46875 " fill-opacity="1" fill-rule="nonzero"/><path fill="#b0c0d8" d="M 77.070312 82.46875 C 77.070312 82.640625 77.035156 82.808594 76.96875 82.96875 C 76.902344 83.132812 76.808594 83.273438 76.683594 83.394531 C 76.5625 83.519531 76.417969 83.613281 76.257812 83.679688 C 76.097656 83.746094 75.929688 83.78125 75.757812 83.78125 C 75.582031 83.78125 75.414062 83.746094 75.253906 83.679688 C 75.09375 83.613281 74.953125 83.519531 74.828125 83.394531 C 74.707031 83.273438 74.613281 83.132812 74.546875 82.96875 C 74.476562 82.808594 74.445312 82.640625 74.445312 82.46875 C 74.445312 82.292969 74.476562 82.128906 74.546875 81.964844 C 74.613281 81.804688 74.707031 81.664062 74.828125 81.539062 C 74.953125 81.417969 75.09375 81.324219 75.253906 81.257812 C 75.414062 81.191406 75.582031 81.15625 75.757812 81.15625 C 75.929688 81.15625 76.097656 81.191406 76.257812 81.257812 C 76.417969 81.324219 76.5625 81.417969 76.683594 81.539062 C 76.808594 81.664062 76.902344 81.804688 76.96875 81.964844 C 77.035156 82.128906 77.070312 82.292969 77.070312 82.46875 Z M 77.070312 82.46875 " fill-opacity="1" fill-rule="nonzero"/><path fill="#b0c0d8" d="M 81.667969 82.46875 C 81.667969 82.640625 81.632812 82.808594 81.566406 82.96875 C 81.5 83.132812 81.40625 83.273438 81.285156 83.394531 C 81.160156 83.519531 81.019531 83.613281 80.859375 83.679688 C 80.695312 83.746094 80.53125 83.78125 80.355469 83.78125 C 80.179688 83.78125 80.015625 83.746094 79.855469 83.679688 C 79.691406 83.613281 79.550781 83.519531 79.429688 83.394531 C 79.304688 83.273438 79.210938 83.132812 79.144531 82.96875 C 79.078125 82.808594 79.042969 82.640625 79.042969 82.46875 C 79.042969 82.292969 79.078125 82.128906 79.144531 81.964844 C 79.210938 81.804688 79.304688 81.664062 79.429688 81.539062 C 79.550781 81.417969 79.691406 81.324219 79.855469 81.257812 C 80.015625 81.191406 80.179688 81.15625 80.355469 81.15625 C 80.53125 81.15625 80.695312 81.191406 80.859375 81.257812 C 81.019531 81.324219 81.160156 81.417969 81.285156 81.539062 C 81.40625 81.664062 81.5 81.804688 81.566406 81.964844 C 81.632812 82.128906 81.667969 82.292969 81.667969 82.46875 Z M 81.667969 82.46875 " fill-opacity="1" fill-rule="nonzero"/><path fill="#b0c0d8" d="M 136.46875 209.175781 L 133.855469 209.175781 C 133.386719 209.175781 132.9375 209.085938 132.503906 208.90625 C 132.070312 208.726562 131.6875 208.472656 131.359375 208.140625 C 131.027344 207.808594 130.773438 207.429688 130.59375 206.996094 C 130.414062 206.5625 130.324219 206.113281 130.324219 205.644531 L 130.324219 189.78125 L 82.535156 189.78125 C 82.066406 189.78125 81.617188 189.691406 81.183594 189.511719 C 80.753906 189.332031 80.371094 189.078125 80.039062 188.746094 C 79.707031 188.414062 79.453125 188.035156 79.273438 187.601562 C 79.09375 187.167969 79.003906 186.71875 79.003906 186.25 L 79.003906 184.78125 C 79.003906 184.019531 79.230469 183.328125 79.679688 182.707031 L 129.148438 114.5 C 129.480469 114.042969 129.894531 113.6875 130.398438 113.429688 C 130.902344 113.171875 131.4375 113.042969 132.003906 113.042969 L 132.9375 113.042969 C 133.40625 113.042969 133.855469 113.132812 134.289062 113.3125 C 134.722656 113.492188 135.101562 113.746094 135.433594 114.078125 C 135.765625 114.410156 136.019531 114.789062 136.199219 115.222656 C 136.378906 115.65625 136.46875 116.105469 136.46875 116.574219 L 136.46875 183.636719 L 148.273438 183.636719 L 148.273438 189.78125 L 136.46875 189.78125 Z M 130.324219 183.636719 L 130.324219 123.402344 L 86.714844 183.636719 Z M 130.324219 183.636719 " fill-opacity="1" fill-rule="nonzero"/><path fill="#b0c0d8" d="M 152.335938 159.902344 C 152.335938 134.484375 159.804688 110.511719 187.03125 110.511719 C 214.015625 110.511719 221.722656 134.847656 221.722656 159.902344 C 221.722656 185.203125 213.773438 208.332031 187.03125 209.175781 C 160.167969 208.332031 152.335938 185.5625 152.335938 159.902344 Z M 158.601562 159.902344 C 158.601562 181.347656 164.023438 203.03125 187.03125 203.03125 C 209.917969 203.03125 215.460938 180.988281 215.460938 159.902344 C 215.460938 138.101562 210.160156 116.898438 187.03125 116.777344 C 163.660156 117.019531 158.601562 137.859375 158.601562 159.902344 Z M 158.601562 159.902344 " fill-opacity="1" fill-rule="nonzero"/><path fill="#b0c0d8" d="M 279.101562 209.175781 L 277.105469 209.175781 L 277.105469 189.78125 L 229.933594 189.78125 C 229.664062 189.78125 229.394531 189.753906 229.125 189.699219 C 228.859375 189.648438 228.601562 189.570312 228.347656 189.464844 C 228.097656 189.359375 227.855469 189.230469 227.628906 189.082031 C 227.40625 188.929688 227.195312 188.757812 227.003906 188.566406 C 226.808594 188.371094 226.636719 188.164062 226.484375 187.9375 C 226.335938 187.710938 226.207031 187.472656 226.101562 187.21875 C 226 186.96875 225.921875 186.707031 225.867188 186.441406 C 225.8125 186.171875 225.785156 185.902344 225.785156 185.632812 L 225.785156 184.984375 C 225.785156 184.085938 226.050781 183.273438 226.578125 182.546875 L 275.742188 114.757812 C 276.132812 114.21875 276.625 113.800781 277.214844 113.496094 C 277.808594 113.195312 278.4375 113.042969 279.101562 113.042969 C 279.375 113.042969 279.644531 113.070312 279.910156 113.125 C 280.175781 113.175781 280.4375 113.257812 280.6875 113.359375 C 280.941406 113.464844 281.179688 113.59375 281.40625 113.742188 C 281.632812 113.894531 281.839844 114.066406 282.035156 114.261719 C 282.226562 114.453125 282.398438 114.660156 282.550781 114.886719 C 282.703125 115.113281 282.828125 115.355469 282.933594 115.605469 C 283.039062 115.855469 283.117188 116.117188 283.167969 116.382812 C 283.222656 116.652344 283.25 116.921875 283.25 117.191406 L 283.25 183.636719 L 295.058594 183.636719 L 295.058594 189.78125 L 283.25 189.78125 L 283.25 205.027344 C 283.25 205.300781 283.222656 205.570312 283.167969 205.835938 C 283.117188 206.105469 283.039062 206.363281 282.933594 206.613281 C 282.828125 206.867188 282.699219 207.105469 282.550781 207.332031 C 282.398438 207.558594 282.226562 207.769531 282.035156 207.960938 C 281.839844 208.152344 281.632812 208.324219 281.40625 208.476562 C 281.179688 208.628906 280.941406 208.753906 280.6875 208.859375 C 280.4375 208.964844 280.175781 209.042969 279.910156 209.09375 C 279.644531 209.148438 279.375 209.175781 279.101562 209.175781 Z M 277.105469 183.636719 L 277.105469 123.402344 L 233.496094 183.636719 Z M 277.105469 183.636719 " fill-opacity="1" fill-rule="nonzero"/><path fill="#b0c0d8" d="M 132.941406 203.945312 L 277.105469 203.945312 L 277.105469 209.175781 L 132.941406 209.175781 Z M 132.941406 203.945312 " fill-opacity="1" fill-rule="nonzero"/><path fill="#e9f0fb" d="M 195.410156 128.300781 L 228.9375 128.300781 L 228.9375 167.4375 L 195.410156 167.4375 Z M 195.410156 128.300781 " fill-opacity="1" fill-rule="nonzero"/><path fill="#f1bab3" d="M 161.957031 123.230469 L 205.742188 124.820312 L 205.261719 133.855469 L 161.957031 140.964844 Z M 161.957031 123.230469 " fill-opacity="1" fill-rule="nonzero"/><path fill="#171e45" d="M 193.035156 204.214844 C 193.035156 204.214844 209.316406 283.238281 206.261719 295.109375 C 203.210938 306.980469 147.574219 350.109375 147.574219 350.109375 L 136.730469 339.878906 C 157.757812 314.273438 160.050781 303.84375 182.855469 291.039062 C 164.660156 265.65625 143.867188 241.25 145.886719 208.285156 Z M 193.035156 204.214844 " fill-opacity="1" fill-rule="nonzero"/><path fill="#343358" d="M 145.890625 208.285156 C 145.054688 233.5 149.902344 262.566406 154.371094 291.378906 C 148.503906 316.261719 153.300781 341.890625 157.085938 365.953125 L 172.007812 365.953125 L 174.042969 291.71875 C 183.9375 265.453125 191.40625 234.070312 193.039062 204.214844 C 183.4375 214.5625 167.308594 215.308594 145.890625 208.285156 Z M 145.890625 208.285156 " fill-opacity="1" fill-rule="nonzero"/><path fill="#192d54" d="M 172.007812 365.953125 C 172.007812 365.953125 185.933594 370.488281 185.933594 374.8125 L 156.234375 374.8125 C 156 370.902344 156.117188 368.921875 157.085938 365.953125 Z M 172.007812 365.953125 " fill-opacity="1" fill-rule="nonzero"/><path fill="#ecaca2" d="M 147.925781 120.355469 L 156.574219 100.261719 L 170.3125 106.875 C 170.3125 106.875 166.242188 116.800781 166.242188 125.445312 C 166.242188 134.09375 147.925781 120.355469 147.925781 120.355469 Z M 147.925781 120.355469 " fill-opacity="1" fill-rule="nonzero"/><path fill="#4a7aff" d="M 148.945312 117.8125 C 137.570312 121.734375 136.398438 145.792969 138.089844 155.714844 C 139.78125 165.636719 150.300781 190.308594 150.300781 193.703125 C 150.300781 197.09375 145.890625 208.285156 145.890625 208.285156 C 149.664062 221.449219 186.511719 231.453125 197.617188 219.796875 C 201.089844 195.460938 181.027344 106.746094 148.945312 117.8125 Z M 148.945312 117.8125 " fill-opacity="1" fill-rule="nonzero"/><path fill="#ffcc4b" d="M 147.355469 204.984375 C 147.355469 204.984375 177.757812 215.878906 198.28125 209.746094 L 197.957031 219.464844 C 197.957031 219.464844 181.8125 226.835938 146.144531 214.890625 C 146.144531 214.890625 143.695312 208.445312 147.355469 204.984375 Z M 147.355469 204.984375 " fill-opacity="1" fill-rule="nonzero"/><path fill="#ffad12" d="M 161.566406 212.027344 L 183.644531 215.085938 L 180.726562 236.175781 L 158.648438 233.121094 Z M 161.566406 212.027344 " fill-opacity="1" fill-rule="nonzero"/><path fill="#ffcc4b" d="M 160.890625 217.234375 L 182.972656 220.292969 L 180.769531 236.183594 L 158.691406 233.128906 Z M 160.890625 217.234375 " fill-opacity="1" fill-rule="nonzero"/><path fill="#ffad12" d="M 166.523438 220.550781 L 180.554688 222.492188 L 180.1875 225.164062 L 166.15625 223.222656 Z M 166.523438 220.550781 " fill-opacity="1" fill-rule="nonzero"/><path fill="#d7e3f8" d="M 159.796875 258.960938 L 156.210938 258.464844 L 161.21875 222.28125 L 164.804688 222.78125 Z M 159.796875 258.960938 " fill-opacity="1" fill-rule="nonzero"/><path fill="#4a7aff" d="M 160.46875 259.054688 L 155.363281 258.347656 L 157.785156 240.832031 L 162.894531 241.539062 Z M 160.46875 259.054688 " fill-opacity="1" fill-rule="nonzero"/><path fill="#b0c0d8" d="M 156.316406 214.570312 C 156.449219 215.011719 156.6875 215.382812 157.039062 215.683594 C 157.386719 215.984375 157.789062 216.167969 158.246094 216.230469 L 158.882812 216.320312 C 159.339844 216.382812 159.773438 216.316406 160.191406 216.121094 C 160.609375 215.925781 160.941406 215.632812 161.1875 215.246094 L 166.503906 215.980469 C 172.308594 216.566406 174.640625 227.707031 174.640625 227.707031 L 172.453125 227.402344 C 172.453125 227.402344 170.617188 221.632812 168.464844 221.273438 C 168.160156 221.230469 167.855469 221.238281 167.550781 221.296875 C 167.246094 221.355469 166.960938 221.464844 166.695312 221.625 C 166.429688 221.78125 166.195312 221.976562 165.996094 222.214844 C 165.796875 222.453125 165.640625 222.714844 165.53125 223.003906 L 160.214844 222.269531 C 160.085938 221.828125 159.84375 221.457031 159.496094 221.15625 C 159.148438 220.855469 158.746094 220.671875 158.289062 220.605469 L 157.652344 220.519531 C 157.195312 220.457031 156.757812 220.523438 156.339844 220.71875 C 155.921875 220.914062 155.589844 221.207031 155.34375 221.59375 L 151.121094 221.007812 L 152.09375 213.988281 Z M 156.316406 214.570312 " fill-opacity="1" fill-rule="nonzero"/><path fill="#b0c0d8" d="M 166.382812 229.378906 L 159.0625 228.367188 L 159.441406 225.652344 L 166.757812 226.667969 Z M 166.382812 229.378906 " fill-opacity="1" fill-rule="nonzero"/><path fill="#2862de" d="M 179.242188 181.3125 C 177.714844 171.066406 178.574219 160.230469 173.941406 150.714844 C 171.847656 146.410156 169.042969 142.203125 165.394531 139.058594 C 161.949219 136.09375 156.96875 132.628906 152.558594 131.578125 C 152.460938 131.550781 152.371094 131.507812 152.292969 131.441406 C 146.027344 138.929688 145.039062 148.804688 145.738281 158.1875 C 146.574219 169.375 148.15625 181.027344 152.484375 191.449219 C 154.328125 195.890625 156.039062 202.226562 160.988281 204.023438 C 166.070312 205.867188 172.378906 205.300781 177.503906 204.109375 C 184.214844 202.550781 190.464844 199.664062 196.691406 196.75 C 195.894531 190.972656 194.738281 184.699219 193.257812 178.304688 C 188.800781 179.269531 184.546875 181.359375 179.96875 181.832031 C 179.796875 181.855469 179.640625 181.816406 179.5 181.714844 C 179.359375 181.617188 179.273438 181.480469 179.242188 181.3125 Z M 179.242188 181.3125 " fill-opacity="0.498" fill-rule="nonzero"/><path fill="#f1bab3" d="M 160.074219 108.214844 C 160.292969 108.835938 160.554688 109.4375 160.863281 110.019531 C 161.171875 110.597656 161.519531 111.15625 161.910156 111.683594 C 162.300781 112.214844 162.730469 112.710938 163.195312 113.175781 C 163.660156 113.640625 164.160156 114.070312 164.6875 114.460938 C 165.21875 114.847656 165.773438 115.199219 166.355469 115.503906 C 166.9375 115.8125 167.539062 116.074219 168.160156 116.289062 C 168.785156 116.507812 169.417969 116.675781 170.0625 116.796875 C 170.710938 116.917969 171.363281 116.992188 172.019531 117.015625 L 175.722656 111.335938 L 179.332031 110.316406 L 178.125 98.429688 C 178.125 98.429688 175.265625 89.355469 165.851562 87.957031 C 156.4375 86.558594 149.59375 101.902344 160.074219 108.214844 Z M 160.074219 108.214844 " fill-opacity="1" fill-rule="nonzero"/><path fill="#192d54" d="M 151.351562 102.570312 C 151.464844 101.800781 151.511719 100.527344 151.714844 99.59375 C 150.34375 98.730469 150.359375 98.089844 149.78125 96.445312 C 149.558594 95.816406 149.425781 95.167969 149.378906 94.503906 C 149.328125 93.835938 149.371094 93.175781 149.503906 92.523438 C 149.632812 91.867188 149.847656 91.242188 150.148438 90.648438 C 150.449219 90.050781 150.820312 89.503906 151.269531 89.007812 C 151.714844 88.511719 152.21875 88.085938 152.78125 87.726562 C 153.34375 87.367188 153.945312 87.085938 154.582031 86.890625 C 155.21875 86.691406 155.871094 86.582031 156.539062 86.558594 C 157.207031 86.539062 157.863281 86.605469 158.511719 86.761719 C 158.75 77 179.183594 75.417969 182.988281 88.453125 C 184.425781 89.078125 183.007812 90.605469 183.566406 92.195312 C 184.628906 95.226562 185.640625 98.210938 182.609375 99.277344 C 181.644531 99.617188 180.660156 99.691406 179.65625 99.507812 C 178.09375 99.382812 176.582031 99.023438 175.128906 98.433594 C 175.074219 98.414062 175.019531 98.390625 174.964844 98.367188 C 173.34375 97.773438 171.832031 96.972656 170.429688 95.960938 C 170.429688 95.960938 173.71875 99.984375 165.035156 105.679688 C 156.355469 111.375 150.5625 107.785156 151.351562 102.570312 Z M 151.351562 102.570312 " fill-opacity="1" fill-rule="nonzero"/><path fill="#f1bab3" d="M 161.199219 110.4375 C 161.199219 110.4375 156.238281 102.273438 160.179688 100.335938 C 164.121094 98.394531 165.253906 107.25 165.253906 107.25 Z M 161.199219 110.4375 " fill-opacity="1" fill-rule="nonzero"/><path fill="#b0c0d8" d="M 213.863281 163.875 C 213.691406 163.875 213.546875 163.8125 213.425781 163.691406 C 213.304688 163.570312 213.242188 163.425781 213.242188 163.253906 L 213.242188 153.734375 C 213.242188 153.5625 213.304688 153.417969 213.425781 153.296875 C 213.546875 153.175781 213.691406 153.113281 213.863281 153.113281 C 214.035156 153.113281 214.179688 153.175781 214.300781 153.296875 C 214.421875 153.417969 214.480469 153.5625 214.484375 153.734375 L 214.484375 163.253906 C 214.480469 163.425781 214.421875 163.570312 214.300781 163.691406 C 214.179688 163.8125 214.035156 163.875 213.863281 163.875 Z M 213.863281 163.875 " fill-opacity="1" fill-rule="nonzero"/><path fill="#b0c0d8" d="M 220.90625 163.875 C 220.734375 163.875 220.585938 163.8125 220.464844 163.691406 C 220.347656 163.570312 220.285156 163.425781 220.285156 163.253906 L 220.285156 153.734375 C 220.285156 153.5625 220.347656 153.417969 220.464844 153.296875 C 220.585938 153.175781 220.734375 153.113281 220.90625 153.113281 C 221.074219 153.113281 221.222656 153.175781 221.34375 153.296875 C 221.464844 153.417969 221.523438 153.5625 221.523438 153.734375 L 221.523438 163.253906 C 221.523438 163.425781 221.464844 163.570312 221.34375 163.691406 C 221.222656 163.8125 221.074219 163.875 220.90625 163.875 Z M 220.90625 163.875 " fill-opacity="1" fill-rule="nonzero"/><path fill="#ffffff" d="M 210.394531 160.886719 L 210.394531 165.378906 C 210.398438 165.738281 210.433594 166.097656 210.503906 166.453125 C 210.574219 166.8125 210.679688 167.15625 210.820312 167.492188 C 210.960938 167.824219 211.128906 168.144531 211.332031 168.445312 C 211.535156 168.746094 211.761719 169.027344 212.019531 169.28125 C 212.277344 169.539062 212.554688 169.769531 212.855469 169.96875 C 213.15625 170.171875 213.476562 170.34375 213.8125 170.480469 C 214.144531 170.621094 214.492188 170.726562 214.847656 170.796875 C 215.203125 170.867188 215.5625 170.90625 215.925781 170.90625 L 219.027344 170.90625 C 219.386719 170.90625 219.746094 170.867188 220.101562 170.796875 C 220.460938 170.726562 220.804688 170.621094 221.140625 170.480469 C 221.472656 170.34375 221.792969 170.171875 222.09375 169.96875 C 222.394531 169.769531 222.675781 169.539062 222.929688 169.28125 C 223.1875 169.027344 223.417969 168.746094 223.617188 168.445312 C 223.820312 168.144531 223.992188 167.824219 224.128906 167.492188 C 224.269531 167.15625 224.375 166.8125 224.445312 166.453125 C 224.515625 166.097656 224.554688 165.738281 224.554688 165.378906 L 224.554688 160.886719 C 224.554688 160.71875 224.523438 160.554688 224.457031 160.402344 C 224.394531 160.246094 224.300781 160.109375 224.183594 159.992188 C 224.066406 159.871094 223.929688 159.78125 223.773438 159.71875 C 223.617188 159.652344 223.457031 159.621094 223.289062 159.621094 L 211.664062 159.621094 C 211.496094 159.621094 211.335938 159.652344 211.179688 159.714844 C 211.023438 159.777344 210.886719 159.871094 210.769531 159.988281 C 210.648438 160.109375 210.558594 160.246094 210.492188 160.398438 C 210.429688 160.554688 210.394531 160.71875 210.394531 160.886719 Z M 210.394531 160.886719 " fill-opacity="1" fill-rule="nonzero"/><path fill="#f1bab3" d="M 145.828125 142.109375 C 149.953125 115.070312 169.703125 129.902344 173.816406 139.160156 C 178.140625 148.886719 173.9375 179.617188 173.9375 179.617188 L 204.707031 173.230469 L 206.765625 185.773438 C 206.765625 185.773438 172.207031 206.027344 162.433594 199.285156 C 152.660156 192.546875 144.433594 151.261719 145.828125 142.109375 Z M 145.828125 142.109375 " fill-opacity="1" fill-rule="nonzero"/><path fill="#4a7aff" d="M 174.515625 174.753906 C 175.492188 165.691406 177.066406 146.480469 173.816406 139.160156 C 169.707031 129.902344 149.953125 115.070312 145.828125 142.109375 C 145.011719 147.464844 147.492188 163.820312 151.644531 177.824219 C 159.277344 176.875 166.898438 175.8125 174.515625 174.753906 Z M 174.515625 174.753906 " fill-opacity="1" fill-rule="nonzero"/><path fill="#f1bab3" d="M 204.707031 173.230469 C 204.707031 173.230469 214.324219 165.855469 221.042969 169.25 C 227.765625 172.648438 229.082031 178.503906 224.816406 180.507812 C 220.554688 182.507812 214.699219 183.828125 212.726562 183.703125 C 210.753906 183.578125 206.765625 185.773438 206.765625 185.773438 Z M 204.707031 173.230469 " fill-opacity="1" fill-rule="nonzero"/><path fill="#f1bab3" d="M 214.371094 168.769531 C 214.371094 168.769531 225.722656 166.015625 227.261719 170.167969 C 228.058594 172.3125 220.953125 170.734375 220.953125 170.734375 Z M 214.371094 168.769531 " fill-opacity="1" fill-rule="nonzero"/><path fill="#ffffff" d="M 209.074219 146.367188 L 208.121094 141.976562 C 208.042969 141.621094 208.003906 141.261719 207.996094 140.902344 C 207.992188 140.539062 208.019531 140.179688 208.085938 139.820312 C 208.152344 139.464844 208.25 139.117188 208.382812 138.78125 C 208.515625 138.445312 208.679688 138.121094 208.878906 137.816406 C 209.074219 137.511719 209.296875 137.230469 209.546875 136.96875 C 209.800781 136.707031 210.074219 136.472656 210.371094 136.265625 C 210.667969 136.058594 210.984375 135.882812 211.316406 135.738281 C 211.648438 135.589844 211.992188 135.480469 212.347656 135.402344 L 215.378906 134.742188 C 215.730469 134.667969 216.089844 134.625 216.453125 134.621094 C 216.816406 134.613281 217.175781 134.644531 217.53125 134.710938 C 217.886719 134.773438 218.234375 134.875 218.574219 135.007812 C 218.910156 135.140625 219.230469 135.304688 219.535156 135.5 C 219.839844 135.695312 220.125 135.921875 220.386719 136.171875 C 220.644531 136.421875 220.878906 136.699219 221.085938 136.996094 C 221.292969 137.292969 221.472656 137.609375 221.617188 137.941406 C 221.761719 138.273438 221.875 138.617188 221.953125 138.96875 L 222.90625 143.359375 C 222.941406 143.523438 222.945312 143.6875 222.914062 143.851562 C 222.886719 144.019531 222.824219 144.171875 222.734375 144.3125 C 222.644531 144.453125 222.53125 144.570312 222.390625 144.667969 C 222.253906 144.761719 222.105469 144.828125 221.941406 144.863281 L 210.578125 147.335938 C 210.414062 147.371094 210.25 147.371094 210.085938 147.34375 C 209.921875 147.3125 209.765625 147.253906 209.625 147.160156 C 209.484375 147.070312 209.367188 146.957031 209.269531 146.820312 C 209.175781 146.679688 209.109375 146.53125 209.074219 146.367188 Z M 209.074219 146.367188 " fill-opacity="1" fill-rule="nonzero"/><path fill="#f1bab3" d="M 220.824219 134.472656 C 220.914062 134.09375 220.96875 133.703125 220.988281 133.3125 C 221.375 129.480469 220.363281 125.0625 218.9375 124.519531 C 218.828125 124.476562 218.710938 124.441406 218.597656 124.414062 L 218.492188 124.386719 C 218.386719 124.363281 218.273438 124.34375 218.15625 124.320312 C 218.125 124.316406 218.097656 124.3125 218.0625 124.304688 C 217.914062 124.28125 217.75 124.261719 217.582031 124.242188 L 217.488281 124.234375 C 217.34375 124.21875 217.191406 124.207031 217.035156 124.195312 L 216.894531 124.1875 C 216.707031 124.175781 216.515625 124.167969 216.316406 124.160156 L 216.3125 124.160156 C 216.097656 124.152344 215.886719 124.148438 215.660156 124.148438 L 215.53125 124.148438 C 215.34375 124.148438 215.148438 124.148438 214.949219 124.148438 L 214.84375 124.148438 C 210.851562 124.195312 205.742188 124.820312 205.742188 124.820312 L 205.261719 133.851562 C 205.261719 133.851562 210.492188 138.824219 216.632812 139.09375 C 216.667969 139.09375 216.707031 139.09375 216.738281 139.09375 C 222.488281 139.886719 226.8125 138.5 220.824219 134.472656 Z M 220.824219 134.472656 " fill-opacity="1" fill-rule="nonzero"/><path fill="#ffad12" d="M 180.457031 91.058594 C 180.21875 92.097656 179.964844 93.132812 179.691406 94.160156 L 151.84375 85.457031 C 155.066406 76.089844 164.703125 70.710938 173.53125 73.46875 C 175.421875 74.070312 177.144531 74.984375 178.699219 76.214844 C 180.253906 77.441406 181.542969 78.90625 182.5625 80.605469 C 181.628906 84.042969 181.25 87.585938 180.457031 91.058594 Z M 180.457031 91.058594 " fill-opacity="1" fill-rule="nonzero"/><path fill="#ffcc4b" d="M 149.394531 89.035156 C 152.855469 78.972656 163.207031 73.195312 172.691406 76.15625 C 182.171875 79.121094 187.292969 91.3125 184.410156 101.558594 Z M 149.394531 89.035156 " fill-opacity="1" fill-rule="nonzero"/><path fill="#ffad12" d="M 185.992188 102.9375 L 148.765625 91.304688 C 148.609375 91.25 148.46875 91.164062 148.34375 91.054688 C 148.222656 90.941406 148.125 90.808594 148.050781 90.660156 C 147.980469 90.507812 147.941406 90.351562 147.929688 90.183594 C 147.921875 90.019531 147.945312 89.855469 148 89.699219 C 148.042969 89.539062 148.117188 89.390625 148.21875 89.261719 C 148.320312 89.128906 148.445312 89.023438 148.589844 88.9375 C 148.734375 88.855469 148.890625 88.804688 149.054688 88.78125 C 149.21875 88.761719 149.382812 88.769531 149.542969 88.8125 C 149.542969 88.8125 187.75 101.367188 187.535156 102.054688 C 187.492188 102.214844 187.417969 102.363281 187.316406 102.492188 C 187.210938 102.625 187.089844 102.730469 186.945312 102.816406 C 186.800781 102.898438 186.644531 102.949219 186.480469 102.972656 C 186.316406 102.992188 186.152344 102.980469 185.992188 102.9375 Z M 185.992188 102.9375 " fill-opacity="1" fill-rule="nonzero"/><path fill="#192d54" d="M 147.578125 350.109375 C 147.578125 350.109375 152.511719 359.128906 150.441406 365.953125 L 130.195312 347.210938 L 136.730469 339.878906 Z M 147.578125 350.109375 " fill-opacity="1" fill-rule="nonzero"/><path fill="#ffffff" d="M 217.601562 374.8125 L 267.121094 374.8125 C 267.570312 374.8125 268.011719 374.765625 268.449219 374.675781 C 268.890625 374.585938 269.3125 374.449219 269.722656 374.273438 C 270.132812 374.09375 270.523438 373.878906 270.890625 373.621094 C 271.253906 373.363281 271.589844 373.074219 271.898438 372.746094 C 272.203125 372.421875 272.476562 372.066406 272.710938 371.6875 C 272.941406 371.304688 273.136719 370.902344 273.289062 370.484375 C 273.441406 370.0625 273.546875 369.628906 273.613281 369.1875 C 273.675781 368.746094 273.695312 368.300781 273.667969 367.851562 L 211.058594 367.851562 C 211.03125 368.300781 211.046875 368.746094 211.113281 369.1875 C 211.175781 369.628906 211.285156 370.0625 211.4375 370.484375 C 211.589844 370.902344 211.78125 371.304688 212.015625 371.6875 C 212.25 372.066406 212.519531 372.421875 212.828125 372.746094 C 213.132812 373.074219 213.46875 373.363281 213.835938 373.621094 C 214.203125 373.878906 214.589844 374.09375 215 374.273438 C 215.410156 374.449219 215.835938 374.585938 216.273438 374.675781 C 216.710938 374.765625 217.15625 374.8125 217.601562 374.8125 Z M 217.601562 374.8125 " fill-opacity="1" fill-rule="nonzero"/><path fill="#b0c0d8" d="M 236.058594 280.660156 L 230.792969 298.902344 L 253.933594 298.902344 L 248.667969 280.660156 C 248.46875 279.976562 248.167969 279.34375 247.765625 278.757812 C 247.359375 278.171875 246.875 277.664062 246.308594 277.238281 C 245.738281 276.808594 245.117188 276.484375 244.441406 276.257812 C 243.765625 276.03125 243.074219 275.917969 242.363281 275.917969 C 241.652344 275.917969 240.957031 276.03125 240.285156 276.257812 C 239.609375 276.484375 238.988281 276.808594 238.417969 277.238281 C 237.851562 277.664062 237.363281 278.171875 236.960938 278.757812 C 236.554688 279.34375 236.257812 279.976562 236.058594 280.660156 Z M 236.058594 280.660156 " fill-opacity="1" fill-rule="nonzero"/><path fill="#d7e3f8" d="M 224.15625 321.886719 L 260.566406 321.886719 L 253.933594 298.902344 L 230.792969 298.902344 Z M 224.15625 321.886719 " fill-opacity="1" fill-rule="nonzero"/><path fill="#b0c0d8" d="M 217.523438 344.871094 L 267.203125 344.871094 L 260.566406 321.886719 L 224.15625 321.886719 Z M 217.523438 344.871094 " fill-opacity="1" fill-rule="nonzero"/><path fill="#d7e3f8" d="M 267.203125 344.871094 L 217.523438 344.871094 L 211.300781 366.429688 C 211.167969 366.894531 211.085938 367.371094 211.058594 367.851562 L 273.667969 367.851562 C 273.640625 367.371094 273.558594 366.894531 273.425781 366.429688 Z M 267.203125 344.871094 " fill-opacity="1" fill-rule="nonzero"/><path fill="#b0c0d8" d="M 281.605469 374.8125 L 203.121094 374.8125 C 202.660156 374.8125 202.214844 374.722656 201.789062 374.546875 C 201.363281 374.371094 200.984375 374.121094 200.660156 373.792969 C 200.332031 373.46875 200.082031 373.089844 199.90625 372.664062 C 199.726562 372.238281 199.640625 371.792969 199.640625 371.332031 C 199.640625 370.871094 199.726562 370.425781 199.90625 370 C 200.082031 369.574219 200.332031 369.199219 200.660156 368.871094 C 200.984375 368.546875 201.363281 368.292969 201.789062 368.117188 C 202.214844 367.941406 202.660156 367.851562 203.121094 367.851562 L 281.605469 367.851562 C 282.066406 367.851562 282.511719 367.941406 282.9375 368.117188 C 283.363281 368.292969 283.738281 368.546875 284.066406 368.871094 C 284.390625 369.199219 284.644531 369.574219 284.820312 370 C 284.996094 370.425781 285.085938 370.871094 285.085938 371.332031 C 285.085938 371.792969 284.996094 372.238281 284.820312 372.664062 C 284.644531 373.089844 284.390625 373.46875 284.066406 373.792969 C 283.738281 374.121094 283.363281 374.371094 282.9375 374.546875 C 282.511719 374.722656 282.066406 374.8125 281.605469 374.8125 Z M 281.605469 374.8125 " fill-opacity="1" fill-rule="nonzero"/></svg>